<?xml version="1.0" encoding="iso-8859-1"?>
<!-- Uploaded to: SVG Repo, www.svgrepo.com, Generator: SVG Repo Mixer Tools -->
<svg version="1.1" id="Capa_1" xmlns="http://www.w3.org/2000/svg" xmlns:xlink="http://www.w3.org/1999/xlink" 
	 viewBox="0 0 480 480" xml:space="preserve">
<g>
	<polygon style="fill:#826E77;" points="245.714,238.571 245.714,241.429 245.714,250 245.714,252.857 245.714,261.429 
		245.714,264.286 245.714,272.857 245.714,275.714 245.714,284.286 245.714,287.143 245.714,295.714 245.714,298.571 
		245.714,307.143 245.714,310 245.714,318.571 245.714,321.429 245.714,330 245.714,332.857 245.714,341.429 248.571,341.429 
		248.571,332.857 248.571,330 248.571,321.429 248.571,318.571 248.571,310 248.571,307.143 248.571,298.571 248.571,295.714 
		248.571,287.143 248.571,284.286 248.571,275.714 248.571,272.857 248.571,264.286 248.571,261.429 248.571,252.857 248.571,250 
		248.571,241.429 248.571,238.571 248.571,230 245.714,230 	"/>
	<polygon style="fill:#826E77;" points="205.714,332.857 205.714,330 205.714,321.429 205.714,318.571 205.714,310 205.714,307.143 
		205.714,298.571 205.714,295.714 205.714,287.143 205.714,284.286 205.714,275.714 205.714,272.857 205.714,264.286 
		205.714,261.429 205.714,252.857 205.714,250 205.714,241.429 205.714,238.571 205.714,230 202.857,230 202.857,238.571 
		202.857,241.429 202.857,250 202.857,252.857 202.857,261.429 202.857,264.286 202.857,272.857 202.857,275.714 202.857,284.286 
		202.857,287.143 202.857,295.714 202.857,298.571 202.857,307.143 202.857,310 202.857,318.571 202.857,321.429 202.857,330 
		202.857,332.857 202.857,341.429 205.714,341.429 	"/>
	<polygon style="fill:#826E77;" points="217.143,115.714 217.143,124.286 217.143,127.143 217.143,135.714 217.143,138.571 
		217.143,147.143 217.143,150 217.143,158.571 217.143,161.429 217.143,170 217.143,172.857 217.143,181.429 217.143,184.286 
		217.143,192.857 217.143,195.714 217.143,204.286 217.143,207.143 217.143,215.714 220,215.714 220,207.143 220,204.286 
		220,195.714 220,192.857 220,184.286 220,181.429 220,172.857 220,170 220,161.429 220,158.571 220,150 220,147.143 220,138.571 
		220,135.714 220,127.143 220,124.286 220,115.714 220,112.857 220,104.286 217.143,104.286 217.143,112.857 	"/>
	<polygon style="fill:#826E77;" points="274.286,238.571 274.286,241.429 274.286,250 274.286,252.857 274.286,261.429 
		274.286,264.286 274.286,272.857 274.286,275.714 274.286,284.286 274.286,287.143 274.286,295.714 274.286,298.571 
		274.286,307.143 274.286,310 274.286,318.571 274.286,321.429 274.286,330 274.286,332.857 274.286,341.429 277.143,341.429 
		277.143,332.857 277.143,330 277.143,321.429 277.143,318.571 277.143,310 277.143,307.143 277.143,298.571 277.143,295.714 
		277.143,287.143 277.143,284.286 277.143,275.714 277.143,272.857 277.143,264.286 277.143,261.429 277.143,252.857 277.143,250 
		277.143,241.429 277.143,238.571 277.143,230 274.286,230 	"/>
	<polygon style="fill:#826E77;" points="274.286,115.714 274.286,124.286 274.286,127.143 274.286,135.714 274.286,138.571 
		274.286,147.143 274.286,150 274.286,158.571 274.286,161.429 274.286,170 274.286,172.857 274.286,181.429 274.286,184.286 
		274.286,192.857 274.286,195.714 274.286,204.286 274.286,207.143 274.286,215.714 277.143,215.714 277.143,207.143 
		277.143,204.286 277.143,195.714 277.143,192.857 277.143,184.286 277.143,181.429 277.143,172.857 277.143,170 277.143,161.429 
		277.143,158.571 277.143,150 277.143,147.143 277.143,138.571 277.143,135.714 277.143,127.143 277.143,124.286 277.143,115.714 
		277.143,112.857 277.143,104.286 274.286,104.286 274.286,112.857 	"/>
	<polygon style="fill:#826E77;" points="262.857,207.143 262.857,204.286 262.857,195.714 262.857,192.857 262.857,184.286 
		262.857,181.429 262.857,172.857 262.857,170 262.857,161.429 262.857,158.571 262.857,150 262.857,147.143 262.857,138.571 
		262.857,135.714 262.857,127.143 262.857,124.286 262.857,115.714 262.857,112.857 262.857,104.286 260,104.286 260,112.857 
		260,115.714 260,124.286 260,127.143 260,135.714 260,138.571 260,147.143 260,150 260,158.571 260,161.429 260,170 260,172.857 
		260,181.429 260,184.286 260,192.857 260,195.714 260,204.286 260,207.143 260,215.714 262.857,215.714 	"/>
	<polygon style="fill:#826E77;" points="245.714,115.714 245.714,124.286 245.714,127.143 245.714,135.714 245.714,138.571 
		245.714,147.143 245.714,150 245.714,158.571 245.714,161.429 245.714,170 245.714,172.857 245.714,181.429 245.714,184.286 
		245.714,192.857 245.714,195.714 245.714,204.286 245.714,207.143 245.714,215.714 248.571,215.714 248.571,207.143 
		248.571,204.286 248.571,195.714 248.571,192.857 248.571,184.286 248.571,181.429 248.571,172.857 248.571,170 248.571,161.429 
		248.571,158.571 248.571,150 248.571,147.143 248.571,138.571 248.571,135.714 248.571,127.143 248.571,124.286 248.571,115.714 
		248.571,112.857 248.571,104.286 245.714,104.286 245.714,112.857 	"/>
	<polygon style="fill:#826E77;" points="262.857,332.857 262.857,330 262.857,321.429 262.857,318.571 262.857,310 262.857,307.143 
		262.857,298.571 262.857,295.714 262.857,287.143 262.857,284.286 262.857,275.714 262.857,272.857 262.857,264.286 
		262.857,261.429 262.857,252.857 262.857,250 262.857,241.429 262.857,238.571 262.857,230 260,230 260,238.571 260,241.429 
		260,250 260,252.857 260,261.429 260,264.286 260,272.857 260,275.714 260,284.286 260,287.143 260,295.714 260,298.571 
		260,307.143 260,310 260,318.571 260,321.429 260,330 260,332.857 260,341.429 262.857,341.429 	"/>
	<polygon style="fill:#826E77;" points="234.286,207.143 234.286,204.286 234.286,195.714 234.286,192.857 234.286,184.286 
		234.286,181.429 234.286,172.857 234.286,170 234.286,161.429 234.286,158.571 234.286,150 234.286,147.143 234.286,138.571 
		234.286,135.714 234.286,127.143 234.286,124.286 234.286,115.714 234.286,112.857 234.286,104.286 231.428,104.286 
		231.428,112.857 231.428,115.714 231.428,124.286 231.428,127.143 231.428,135.714 231.428,138.571 231.428,147.143 231.428,150 
		231.428,158.571 231.428,161.429 231.428,170 231.428,172.857 231.428,181.429 231.428,184.286 231.428,192.857 231.428,195.714 
		231.428,204.286 231.428,207.143 231.428,215.714 234.286,215.714 	"/>
	<polygon style="fill:#826E77;" points="191.428,207.143 191.428,204.286 191.428,195.714 191.428,192.857 191.428,184.286 
		191.428,181.429 191.428,172.857 191.428,170 191.428,161.429 191.428,158.571 191.428,150 191.428,147.143 191.428,138.571 
		191.428,135.714 191.428,127.143 191.428,124.286 191.428,115.714 191.428,112.857 191.428,104.286 180,104.286 180,215.714 
		191.428,215.714 	"/>
	<polygon style="fill:#826E77;" points="234.286,332.857 234.286,330 234.286,321.429 234.286,318.571 234.286,310 234.286,307.143 
		234.286,298.571 234.286,295.714 234.286,287.143 234.286,284.286 234.286,275.714 234.286,272.857 234.286,264.286 
		234.286,261.429 234.286,252.857 234.286,250 234.286,241.429 234.286,238.571 234.286,230 231.428,230 231.428,238.571 
		231.428,241.429 231.428,250 231.428,252.857 231.428,261.429 231.428,264.286 231.428,272.857 231.428,275.714 231.428,284.286 
		231.428,287.143 231.428,295.714 231.428,298.571 231.428,307.143 231.428,310 231.428,318.571 231.428,321.429 231.428,330 
		231.428,332.857 231.428,341.429 234.286,341.429 	"/>
	<polygon style="fill:#826E77;" points="205.714,207.143 205.714,204.286 205.714,195.714 205.714,192.857 205.714,184.286 
		205.714,181.429 205.714,172.857 205.714,170 205.714,161.429 205.714,158.571 205.714,150 205.714,147.143 205.714,138.571 
		205.714,135.714 205.714,127.143 205.714,124.286 205.714,115.714 205.714,112.857 205.714,104.286 202.857,104.286 
		202.857,112.857 202.857,115.714 202.857,124.286 202.857,127.143 202.857,135.714 202.857,138.571 202.857,147.143 202.857,150 
		202.857,158.571 202.857,161.429 202.857,170 202.857,172.857 202.857,181.429 202.857,184.286 202.857,192.857 202.857,195.714 
		202.857,204.286 202.857,207.143 202.857,215.714 205.714,215.714 	"/>
	<polygon style="fill:#826E77;" points="288.571,112.857 288.571,115.714 288.571,124.286 288.571,127.143 288.571,135.714 
		288.571,138.571 288.571,147.143 288.571,150 288.571,158.571 288.571,161.429 288.571,170 288.571,172.857 288.571,181.429 
		288.571,184.286 288.571,192.857 288.571,195.714 288.571,204.286 288.571,207.143 288.571,215.714 300,215.714 300,104.286 
		288.571,104.286 	"/>
	<polygon style="fill:#826E77;" points="288.571,364.286 288.571,367.143 288.571,375.714 288.571,378.571 288.571,387.143 
		288.571,390 288.571,398.571 288.571,401.429 288.571,410 288.571,412.857 288.571,421.429 288.571,424.286 288.571,432.857 
		288.571,435.714 288.571,444.286 288.571,447.143 288.571,455.714 285.714,455.714 277.143,455.714 277.143,447.143 
		277.143,444.286 277.143,435.714 277.143,432.857 277.143,424.286 277.143,421.429 277.143,412.857 277.143,410 277.143,401.429 
		277.143,398.571 277.143,390 277.143,387.143 277.143,378.571 277.143,375.714 277.143,367.143 277.143,364.286 277.143,355.714 
		274.286,355.714 274.286,364.286 274.286,367.143 274.286,375.714 274.286,378.571 274.286,387.143 274.286,390 274.286,398.571 
		274.286,401.429 274.286,410 274.286,412.857 274.286,421.429 274.286,424.286 274.286,432.857 274.286,435.714 274.286,444.286 
		274.286,447.143 274.286,455.714 271.428,455.714 262.857,455.714 262.857,447.143 262.857,444.286 262.857,435.714 
		262.857,432.857 262.857,424.286 262.857,421.429 262.857,412.857 262.857,410 262.857,401.429 262.857,398.571 262.857,390 
		262.857,387.143 262.857,378.571 262.857,375.714 262.857,367.143 262.857,364.286 262.857,355.714 260,355.714 260,364.286 
		260,367.143 260,375.714 260,378.571 260,387.143 260,390 260,398.571 260,401.429 260,410 260,412.857 260,421.429 260,424.286 
		260,432.857 260,435.714 260,444.286 260,447.143 260,455.714 257.143,455.714 248.571,455.714 248.571,447.143 248.571,444.286 
		248.571,435.714 248.571,432.857 248.571,424.286 248.571,421.429 248.571,412.857 248.571,410 248.571,401.429 248.571,398.571 
		248.571,390 248.571,387.143 248.571,378.571 248.571,375.714 248.571,367.143 248.571,364.286 248.571,355.714 245.714,355.714 
		245.714,364.286 245.714,367.143 245.714,375.714 245.714,378.571 245.714,387.143 245.714,390 245.714,398.571 245.714,401.429 
		245.714,410 245.714,412.857 245.714,421.429 245.714,424.286 245.714,432.857 245.714,435.714 245.714,444.286 245.714,447.143 
		245.714,455.714 242.857,455.714 234.286,455.714 234.286,447.143 234.286,444.286 234.286,435.714 234.286,432.857 
		234.286,424.286 234.286,421.429 234.286,412.857 234.286,410 234.286,401.429 234.286,398.571 234.286,390 234.286,387.143 
		234.286,378.571 234.286,375.714 234.286,367.143 234.286,364.286 234.286,355.714 231.428,355.714 231.428,364.286 
		231.428,367.143 231.428,375.714 231.428,378.571 231.428,387.143 231.428,390 231.428,398.571 231.428,401.429 231.428,410 
		231.428,412.857 231.428,421.429 231.428,424.286 231.428,432.857 231.428,435.714 231.428,444.286 231.428,447.143 
		231.428,455.714 228.571,455.714 220,455.714 220,447.143 220,444.286 220,435.714 220,432.857 220,424.286 220,421.429 
		220,412.857 220,410 220,401.429 220,398.571 220,390 220,387.143 220,378.571 220,375.714 220,367.143 220,364.286 220,355.714 
		217.143,355.714 217.143,364.286 217.143,367.143 217.143,375.714 217.143,378.571 217.143,387.143 217.143,390 217.143,398.571 
		217.143,401.429 217.143,410 217.143,412.857 217.143,421.429 217.143,424.286 217.143,432.857 217.143,435.714 217.143,444.286 
		217.143,447.143 217.143,455.714 214.286,455.714 205.714,455.714 205.714,447.143 205.714,444.286 205.714,435.714 
		205.714,432.857 205.714,424.286 205.714,421.429 205.714,412.857 205.714,410 205.714,401.429 205.714,398.571 205.714,390 
		205.714,387.143 205.714,378.571 205.714,375.714 205.714,367.143 205.714,364.286 205.714,355.714 202.857,355.714 
		202.857,364.286 202.857,367.143 202.857,375.714 202.857,378.571 202.857,387.143 202.857,390 202.857,398.571 202.857,401.429 
		202.857,410 202.857,412.857 202.857,421.429 202.857,424.286 202.857,432.857 202.857,435.714 202.857,444.286 202.857,447.143 
		202.857,455.714 200,455.714 191.428,455.714 191.428,447.143 191.428,444.286 191.428,435.714 191.428,432.857 191.428,424.286 
		191.428,421.429 191.428,412.857 191.428,410 191.428,401.429 191.428,398.571 191.428,390 191.428,387.143 191.428,378.571 
		191.428,375.714 191.428,367.143 191.428,364.286 191.428,355.714 180,355.714 180,468.571 191.428,468.571 191.428,460 
		217.143,460 217.143,468.571 220,468.571 220,460 260,460 260,468.571 262.857,468.571 262.857,460 288.571,460 288.571,468.571 
		300,468.571 300,355.714 288.571,355.714 	"/>
	<polygon style="fill:#826E77;" points="288.571,238.571 288.571,241.429 288.571,250 288.571,252.857 288.571,261.429 
		288.571,264.286 288.571,272.857 288.571,275.714 288.571,284.286 288.571,287.143 288.571,295.714 288.571,298.571 
		288.571,307.143 288.571,310 288.571,318.571 288.571,321.429 288.571,330 288.571,332.857 288.571,341.429 300,341.429 300,230 
		288.571,230 	"/>
	<polygon style="fill:#826E77;" points="180,0 180,90 191.428,90 191.428,81.429 191.428,78.571 191.428,70 191.428,67.143 
		191.428,58.571 191.428,55.714 191.428,47.143 191.428,44.286 191.428,35.714 191.428,32.857 191.428,24.286 191.428,21.429 
		191.428,12.857 202.857,12.857 202.857,21.429 202.857,24.286 202.857,32.857 202.857,35.714 202.857,44.286 202.857,47.143 
		202.857,55.714 202.857,58.571 202.857,67.143 202.857,70 202.857,78.571 202.857,81.429 202.857,90 205.714,90 205.714,81.429 
		205.714,78.571 205.714,70 205.714,67.143 205.714,58.571 205.714,55.714 205.714,47.143 205.714,44.286 205.714,35.714 
		205.714,32.857 205.714,24.286 205.714,21.429 205.714,12.857 217.143,12.857 217.143,21.429 217.143,24.286 217.143,32.857 
		217.143,35.714 217.143,44.286 217.143,47.143 217.143,55.714 217.143,58.571 217.143,67.143 217.143,70 217.143,78.571 
		217.143,81.429 217.143,90 220,90 220,81.429 220,78.571 220,70 220,67.143 220,58.571 220,55.714 220,47.143 220,44.286 
		220,35.714 220,32.857 220,24.286 220,21.429 220,12.857 231.428,12.857 231.428,21.429 231.428,24.286 231.428,32.857 
		231.428,35.714 231.428,44.286 231.428,47.143 231.428,55.714 231.428,58.571 231.428,67.143 231.428,70 231.428,78.571 
		231.428,81.429 231.428,90 234.286,90 234.286,81.429 234.286,78.571 234.286,70 234.286,67.143 234.286,58.571 234.286,55.714 
		234.286,47.143 234.286,44.286 234.286,35.714 234.286,32.857 234.286,24.286 234.286,21.429 234.286,12.857 245.714,12.857 
		245.714,21.429 245.714,24.286 245.714,32.857 245.714,35.714 245.714,44.286 245.714,47.143 245.714,55.714 245.714,58.571 
		245.714,67.143 245.714,70 245.714,78.571 245.714,81.429 245.714,90 248.571,90 248.571,81.429 248.571,78.571 248.571,70 
		248.571,67.143 248.571,58.571 248.571,55.714 248.571,47.143 248.571,44.286 248.571,35.714 248.571,32.857 248.571,24.286 
		248.571,21.429 248.571,12.857 260,12.857 260,21.429 260,24.286 260,32.857 260,35.714 260,44.286 260,47.143 260,55.714 
		260,58.571 260,67.143 260,70 260,78.571 260,81.429 260,90 262.857,90 262.857,81.429 262.857,78.571 262.857,70 262.857,67.143 
		262.857,58.571 262.857,55.714 262.857,47.143 262.857,44.286 262.857,35.714 262.857,32.857 262.857,24.286 262.857,21.429 
		262.857,12.857 274.286,12.857 274.286,21.429 274.286,24.286 274.286,32.857 274.286,35.714 274.286,44.286 274.286,47.143 
		274.286,55.714 274.286,58.571 274.286,67.143 274.286,70 274.286,78.571 274.286,81.429 274.286,90 277.143,90 277.143,81.429 
		277.143,78.571 277.143,70 277.143,67.143 277.143,58.571 277.143,55.714 277.143,47.143 277.143,44.286 277.143,35.714 
		277.143,32.857 277.143,24.286 277.143,21.429 277.143,12.857 288.571,12.857 288.571,21.429 288.571,24.286 288.571,32.857 
		288.571,35.714 288.571,44.286 288.571,47.143 288.571,55.714 288.571,58.571 288.571,67.143 288.571,70 288.571,78.571 
		288.571,81.429 288.571,90 300,90 300,0 	"/>
	<polygon style="fill:#826E77;" points="217.143,238.571 217.143,241.429 217.143,250 217.143,252.857 217.143,261.429 
		217.143,264.286 217.143,272.857 217.143,275.714 217.143,284.286 217.143,287.143 217.143,295.714 217.143,298.571 
		217.143,307.143 217.143,310 217.143,318.571 217.143,321.429 217.143,330 217.143,332.857 217.143,341.429 220,341.429 
		220,332.857 220,330 220,321.429 220,318.571 220,310 220,307.143 220,298.571 220,295.714 220,287.143 220,284.286 220,275.714 
		220,272.857 220,264.286 220,261.429 220,252.857 220,250 220,241.429 220,238.571 220,230 217.143,230 	"/>
	<polygon style="fill:#826E77;" points="191.428,332.857 191.428,330 191.428,321.429 191.428,318.571 191.428,310 191.428,307.143 
		191.428,298.571 191.428,295.714 191.428,287.143 191.428,284.286 191.428,275.714 191.428,272.857 191.428,264.286 
		191.428,261.429 191.428,252.857 191.428,250 191.428,241.429 191.428,238.571 191.428,230 180,230 180,341.429 191.428,341.429 	
		"/>
	<polygon style="fill:#695A69;" points="262.857,344.286 262.857,341.429 260,341.429 260,344.286 260,352.857 260,355.714 
		262.857,355.714 262.857,352.857 	"/>
	<polygon style="fill:#695A69;" points="288.571,344.286 288.571,352.857 288.571,355.714 300,355.714 300,341.429 288.571,341.429 
			"/>
	<polygon style="fill:#695A69;" points="277.143,344.286 277.143,341.429 274.286,341.429 274.286,344.286 274.286,352.857 
		274.286,355.714 277.143,355.714 277.143,352.857 	"/>
	<polygon style="fill:#695A69;" points="191.428,352.857 191.428,344.286 191.428,341.429 180,341.429 180,355.714 191.428,355.714 
			"/>
	<polygon style="fill:#695A69;" points="220,344.286 220,341.429 217.143,341.429 217.143,344.286 217.143,352.857 217.143,355.714 
		220,355.714 220,352.857 	"/>
	<polygon style="fill:#695A69;" points="234.286,344.286 234.286,341.429 231.428,341.429 231.428,344.286 231.428,352.857 
		231.428,355.714 234.286,355.714 234.286,352.857 	"/>
	<polygon style="fill:#695A69;" points="205.714,344.286 205.714,341.429 202.857,341.429 202.857,344.286 202.857,352.857 
		202.857,355.714 205.714,355.714 205.714,352.857 	"/>
	<polygon style="fill:#695A69;" points="248.571,344.286 248.571,341.429 245.714,341.429 245.714,344.286 245.714,352.857 
		245.714,355.714 248.571,355.714 248.571,352.857 	"/>
	<polygon style="fill:#695A69;" points="262.857,227.143 262.857,218.571 262.857,215.714 260,215.714 260,218.571 260,227.143 
		260,230 262.857,230 	"/>
	<polygon style="fill:#695A69;" points="288.571,218.571 288.571,227.143 288.571,230 300,230 300,215.714 288.571,215.714 	"/>
	<polygon style="fill:#695A69;" points="205.714,227.143 205.714,218.571 205.714,215.714 202.857,215.714 202.857,218.571 
		202.857,227.143 202.857,230 205.714,230 	"/>
	<polygon style="fill:#695A69;" points="274.286,218.571 274.286,227.143 274.286,230 277.143,230 277.143,227.143 277.143,218.571 
		277.143,215.714 274.286,215.714 	"/>
	<polygon style="fill:#695A69;" points="217.143,218.571 217.143,227.143 217.143,230 220,230 220,227.143 220,218.571 220,215.714 
		217.143,215.714 	"/>
	<polygon style="fill:#695A69;" points="191.428,227.143 191.428,218.571 191.428,215.714 180,215.714 180,230 191.428,230 	"/>
	<polygon style="fill:#695A69;" points="234.286,227.143 234.286,218.571 234.286,215.714 231.428,215.714 231.428,218.571 
		231.428,227.143 231.428,230 234.286,230 	"/>
	<polygon style="fill:#695A69;" points="245.714,218.571 245.714,227.143 245.714,230 248.571,230 248.571,227.143 248.571,218.571 
		248.571,215.714 245.714,215.714 	"/>
	<polygon style="fill:#695A69;" points="231.428,101.429 231.428,104.286 234.286,104.286 234.286,101.429 234.286,92.857 
		234.286,90 231.428,90 231.428,92.857 	"/>
	<polygon style="fill:#695A69;" points="217.143,101.429 217.143,104.286 220,104.286 220,101.429 220,92.857 220,90 217.143,90 
		217.143,92.857 	"/>
	<polygon style="fill:#695A69;" points="274.286,101.429 274.286,104.286 277.143,104.286 277.143,101.429 277.143,92.857 
		277.143,90 274.286,90 274.286,92.857 	"/>
	<polygon style="fill:#695A69;" points="260,101.429 260,104.286 262.857,104.286 262.857,101.429 262.857,92.857 262.857,90 
		260,90 260,92.857 	"/>
	<polygon style="fill:#695A69;" points="288.571,92.857 288.571,101.429 288.571,104.286 300,104.286 300,90 288.571,90 	"/>
	<polygon style="fill:#695A69;" points="245.714,101.429 245.714,104.286 248.571,104.286 248.571,101.429 248.571,92.857 
		248.571,90 245.714,90 245.714,92.857 	"/>
	<polygon style="fill:#695A69;" points="202.857,101.429 202.857,104.286 205.714,104.286 205.714,101.429 205.714,92.857 
		205.714,90 202.857,90 202.857,92.857 	"/>
	<polygon style="fill:#695A69;" points="191.428,101.429 191.428,92.857 191.428,90 180,90 180,104.286 191.428,104.286 	"/>
	<polygon style="fill:#6EB1E2;" points="200,101.429 191.428,101.429 191.428,104.286 200,112.857 191.428,112.857 191.428,115.714 
		200,124.286 191.428,124.286 191.428,127.143 200,135.714 191.428,135.714 191.428,138.571 200,147.143 191.428,147.143 
		191.428,150 200,158.571 191.428,158.571 191.428,161.429 200,170 191.428,170 191.428,172.857 200,181.429 191.428,181.429 
		191.428,184.286 200,192.857 191.428,192.857 191.428,195.714 200,204.286 191.428,204.286 191.428,207.143 200,215.714 
		191.428,215.714 191.428,218.571 200,227.143 191.428,227.143 191.428,230 200,238.571 191.428,238.571 191.428,241.429 200,250 
		191.428,250 191.428,252.857 200,261.429 191.428,261.429 191.428,264.286 200,272.857 191.428,272.857 191.428,275.714 
		200,284.286 191.428,284.286 191.428,287.143 200,295.714 191.428,295.714 191.428,298.571 200,307.143 191.428,307.143 
		191.428,310 200,318.571 191.428,318.571 191.428,321.429 200,330 191.428,330 191.428,332.857 200,341.429 191.428,341.429 
		191.428,344.286 200,352.857 191.428,352.857 191.428,355.714 200,364.286 191.428,364.286 191.428,367.143 200,375.714 
		191.428,375.714 191.428,378.571 200,387.143 191.428,387.143 191.428,390 200,398.571 191.428,398.571 191.428,401.429 200,410 
		191.428,410 191.428,412.857 200,421.429 191.428,421.429 191.428,424.286 200,432.857 191.428,432.857 191.428,435.714 
		200,444.286 191.428,444.286 191.428,447.143 200,455.714 202.857,455.714 202.857,447.143 202.857,444.286 202.857,435.714 
		202.857,432.857 202.857,424.286 202.857,421.429 202.857,412.857 202.857,410 202.857,401.429 202.857,398.571 202.857,390 
		202.857,387.143 202.857,378.571 202.857,375.714 202.857,367.143 202.857,364.286 202.857,355.714 202.857,352.857 
		202.857,344.286 202.857,341.429 202.857,332.857 202.857,330 202.857,321.429 202.857,318.571 202.857,310 202.857,307.143 
		202.857,298.571 202.857,295.714 202.857,287.143 202.857,284.286 202.857,275.714 202.857,272.857 202.857,264.286 
		202.857,261.429 202.857,252.857 202.857,250 202.857,241.429 202.857,238.571 202.857,230 202.857,227.143 202.857,218.571 
		202.857,215.714 202.857,207.143 202.857,204.286 202.857,195.714 202.857,192.857 202.857,184.286 202.857,181.429 
		202.857,172.857 202.857,170 202.857,161.429 202.857,158.571 202.857,150 202.857,147.143 202.857,138.571 202.857,135.714 
		202.857,127.143 202.857,124.286 202.857,115.714 202.857,112.857 202.857,104.286 202.857,101.429 202.857,92.857 202.857,90 
		202.857,81.429 202.857,78.571 202.857,70 202.857,67.143 202.857,58.571 202.857,55.714 202.857,47.143 202.857,44.286 
		202.857,35.714 202.857,32.857 202.857,24.286 202.857,21.429 202.857,12.857 191.428,12.857 200,21.429 191.428,21.429 
		191.428,24.286 200,32.857 191.428,32.857 191.428,35.714 200,44.286 191.428,44.286 191.428,47.143 200,55.714 191.428,55.714 
		191.428,58.571 200,67.143 191.428,67.143 191.428,70 200,78.571 191.428,78.571 191.428,81.429 200,90 191.428,90 191.428,92.857 
			"/>
	<polygon style="fill:#80D7F0;" points="217.143,238.571 217.143,230 205.714,230 214.286,238.571 	"/>
	<polygon style="fill:#80D7F0;" points="214.286,364.286 217.143,364.286 217.143,355.714 205.714,355.714 	"/>
	<polygon style="fill:#80D7F0;" points="217.143,124.286 217.143,115.714 205.714,115.714 214.286,124.286 	"/>
	<polygon style="fill:#80D7F0;" points="217.143,147.143 217.143,138.571 205.714,138.571 214.286,147.143 	"/>
	<polygon style="fill:#80D7F0;" points="217.143,158.571 217.143,150 205.714,150 214.286,158.571 	"/>
	<polygon style="fill:#80D7F0;" points="214.286,421.429 217.143,421.429 217.143,412.857 205.714,412.857 	"/>
	<polygon style="fill:#80D7F0;" points="217.143,170 217.143,161.429 205.714,161.429 214.286,170 	"/>
	<polygon style="fill:#80D7F0;" points="214.286,432.857 217.143,432.857 217.143,424.286 205.714,424.286 	"/>
	<polygon style="fill:#80D7F0;" points="217.143,204.286 217.143,195.714 205.714,195.714 214.286,204.286 	"/>
	<polygon style="fill:#80D7F0;" points="214.286,455.714 217.143,455.714 217.143,447.143 205.714,447.143 	"/>
	<polygon style="fill:#80D7F0;" points="217.143,21.429 217.143,12.857 205.714,12.857 214.286,21.429 	"/>
	<polygon style="fill:#80D7F0;" points="217.143,192.857 217.143,184.286 205.714,184.286 214.286,192.857 	"/>
	<polygon style="fill:#80D7F0;" points="217.143,215.714 217.143,207.143 205.714,207.143 214.286,215.714 	"/>
	<polygon style="fill:#80D7F0;" points="217.143,32.857 217.143,24.286 205.714,24.286 214.286,32.857 	"/>
	<polygon style="fill:#80D7F0;" points="217.143,181.429 217.143,172.857 205.714,172.857 214.286,181.429 	"/>
	<polygon style="fill:#80D7F0;" points="214.286,444.286 217.143,444.286 217.143,435.714 205.714,435.714 	"/>
	<polygon style="fill:#80D7F0;" points="217.143,330 217.143,321.429 205.714,321.429 214.286,330 	"/>
	<polygon style="fill:#80D7F0;" points="217.143,55.714 217.143,47.143 205.714,47.143 214.286,55.714 	"/>
	<polygon style="fill:#80D7F0;" points="217.143,78.571 217.143,70 205.714,70 214.286,78.571 	"/>
	<polygon style="fill:#80D7F0;" points="214.286,375.714 217.143,375.714 217.143,367.143 205.714,367.143 	"/>
	<polygon style="fill:#80D7F0;" points="217.143,261.429 217.143,252.857 205.714,252.857 214.286,261.429 	"/>
	<polygon style="fill:#80D7F0;" points="217.143,295.714 217.143,287.143 205.714,287.143 214.286,295.714 	"/>
	<polygon style="fill:#80D7F0;" points="217.143,112.857 217.143,104.286 205.714,104.286 214.286,112.857 	"/>
	<polygon style="fill:#80D7F0;" points="205.714,332.857 214.286,341.429 217.143,341.429 217.143,332.857 	"/>
	<polygon style="fill:#80D7F0;" points="217.143,90 217.143,81.429 205.714,81.429 214.286,90 	"/>
	<polygon style="fill:#80D7F0;" points="217.143,272.857 217.143,264.286 205.714,264.286 214.286,272.857 	"/>
	<polygon style="fill:#80D7F0;" points="217.143,135.714 217.143,127.143 205.714,127.143 214.286,135.714 	"/>
	<polygon style="fill:#80D7F0;" points="214.286,387.143 217.143,387.143 217.143,378.571 205.714,378.571 	"/>
	<polygon style="fill:#80D7F0;" points="214.286,410 217.143,410 217.143,401.429 205.714,401.429 	"/>
	<polygon style="fill:#80D7F0;" points="217.143,307.143 217.143,298.571 205.714,298.571 214.286,307.143 	"/>
	<polygon style="fill:#80D7F0;" points="217.143,284.286 217.143,275.714 205.714,275.714 214.286,284.286 	"/>
	<polygon style="fill:#80D7F0;" points="217.143,67.143 217.143,58.571 205.714,58.571 214.286,67.143 	"/>
	<polygon style="fill:#80D7F0;" points="217.143,250 217.143,241.429 205.714,241.429 214.286,250 	"/>
	<polygon style="fill:#80D7F0;" points="217.143,44.286 217.143,35.714 205.714,35.714 214.286,44.286 	"/>
	<polygon style="fill:#80D7F0;" points="217.143,318.571 217.143,310 205.714,310 214.286,318.571 	"/>
	<polygon style="fill:#80D7F0;" points="214.286,398.571 217.143,398.571 217.143,390 205.714,390 	"/>
	<polygon style="fill:#80D7F0;" points="214.286,352.857 217.143,352.857 217.143,344.286 205.714,344.286 	"/>
	<polygon style="fill:#80D7F0;" points="217.143,227.143 217.143,218.571 205.714,218.571 214.286,227.143 	"/>
	<polygon style="fill:#80D7F0;" points="217.143,101.429 217.143,92.857 205.714,92.857 214.286,101.429 	"/>
	<polygon style="fill:#6EB1E2;" points="228.571,101.429 220,101.429 220,104.286 228.571,112.857 220,112.857 220,115.714 
		228.571,124.286 220,124.286 220,127.143 228.571,135.714 220,135.714 220,138.571 228.571,147.143 220,147.143 220,150 
		228.571,158.571 220,158.571 220,161.429 228.571,170 220,170 220,172.857 228.571,181.429 220,181.429 220,184.286 
		228.571,192.857 220,192.857 220,195.714 228.571,204.286 220,204.286 220,207.143 228.571,215.714 220,215.714 220,218.571 
		228.571,227.143 220,227.143 220,230 228.571,238.571 220,238.571 220,241.429 228.571,250 220,250 220,252.857 228.571,261.429 
		220,261.429 220,264.286 228.571,272.857 220,272.857 220,275.714 228.571,284.286 220,284.286 220,287.143 228.571,295.714 
		220,295.714 220,298.571 228.571,307.143 220,307.143 220,310 228.571,318.571 220,318.571 220,321.429 228.571,330 220,330 
		220,332.857 228.571,341.429 220,341.429 220,344.286 228.571,352.857 220,352.857 220,355.714 228.571,364.286 220,364.286 
		220,367.143 228.571,375.714 220,375.714 220,378.571 228.571,387.143 220,387.143 220,390 228.571,398.571 220,398.571 
		220,401.429 228.571,410 220,410 220,412.857 228.571,421.429 220,421.429 220,424.286 228.571,432.857 220,432.857 220,435.714 
		228.571,444.286 220,444.286 220,447.143 228.571,455.714 231.428,455.714 231.428,447.143 231.428,444.286 231.428,435.714 
		231.428,432.857 231.428,424.286 231.428,421.429 231.428,412.857 231.428,410 231.428,401.429 231.428,398.571 231.428,390 
		231.428,387.143 231.428,378.571 231.428,375.714 231.428,367.143 231.428,364.286 231.428,355.714 231.428,352.857 
		231.428,344.286 231.428,341.429 231.428,332.857 231.428,330 231.428,321.429 231.428,318.571 231.428,310 231.428,307.143 
		231.428,298.571 231.428,295.714 231.428,287.143 231.428,284.286 231.428,275.714 231.428,272.857 231.428,264.286 
		231.428,261.429 231.428,252.857 231.428,250 231.428,241.429 231.428,238.571 231.428,230 231.428,227.143 231.428,218.571 
		231.428,215.714 231.428,207.143 231.428,204.286 231.428,195.714 231.428,192.857 231.428,184.286 231.428,181.429 
		231.428,172.857 231.428,170 231.428,161.429 231.428,158.571 231.428,150 231.428,147.143 231.428,138.571 231.428,135.714 
		231.428,127.143 231.428,124.286 231.428,115.714 231.428,112.857 231.428,104.286 231.428,101.429 231.428,92.857 231.428,90 
		231.428,81.429 231.428,78.571 231.428,70 231.428,67.143 231.428,58.571 231.428,55.714 231.428,47.143 231.428,44.286 
		231.428,35.714 231.428,32.857 231.428,24.286 231.428,21.429 231.428,12.857 220,12.857 228.571,21.429 220,21.429 220,24.286 
		228.571,32.857 220,32.857 220,35.714 228.571,44.286 220,44.286 220,47.143 228.571,55.714 220,55.714 220,58.571 228.571,67.143 
		220,67.143 220,70 228.571,78.571 220,78.571 220,81.429 228.571,90 220,90 220,92.857 	"/>
	<polygon style="fill:#80D7F0;" points="245.714,261.429 245.714,252.857 234.286,252.857 242.857,261.429 	"/>
	<polygon style="fill:#80D7F0;" points="245.714,181.429 245.714,172.857 234.286,172.857 242.857,181.429 	"/>
	<polygon style="fill:#80D7F0;" points="245.714,170 245.714,161.429 234.286,161.429 242.857,170 	"/>
	<polygon style="fill:#80D7F0;" points="242.857,421.429 245.714,421.429 245.714,412.857 234.286,412.857 	"/>
	<polygon style="fill:#80D7F0;" points="242.857,375.714 245.714,375.714 245.714,367.143 234.286,367.143 	"/>
	<polygon style="fill:#80D7F0;" points="245.714,204.286 245.714,195.714 234.286,195.714 242.857,204.286 	"/>
	<polygon style="fill:#80D7F0;" points="245.714,192.857 245.714,184.286 234.286,184.286 242.857,192.857 	"/>
	<polygon style="fill:#80D7F0;" points="245.714,272.857 245.714,264.286 234.286,264.286 242.857,272.857 	"/>
	<polygon style="fill:#80D7F0;" points="245.714,32.857 245.714,24.286 234.286,24.286 242.857,32.857 	"/>
	<polygon style="fill:#80D7F0;" points="242.857,398.571 245.714,398.571 245.714,390 234.286,390 	"/>
	<polygon style="fill:#80D7F0;" points="245.714,158.571 245.714,150 234.286,150 242.857,158.571 	"/>
	<polygon style="fill:#80D7F0;" points="245.714,44.286 245.714,35.714 234.286,35.714 242.857,44.286 	"/>
	<polygon style="fill:#80D7F0;" points="245.714,215.714 245.714,207.143 234.286,207.143 242.857,215.714 	"/>
	<polygon style="fill:#80D7F0;" points="242.857,410 245.714,410 245.714,401.429 234.286,401.429 	"/>
	<polygon style="fill:#80D7F0;" points="245.714,250 245.714,241.429 234.286,241.429 242.857,250 	"/>
	<polygon style="fill:#80D7F0;" points="242.857,364.286 245.714,364.286 245.714,355.714 234.286,355.714 	"/>
	<polygon style="fill:#80D7F0;" points="245.714,21.429 245.714,12.857 234.286,12.857 242.857,21.429 	"/>
	<polygon style="fill:#80D7F0;" points="245.714,238.571 245.714,230 234.286,230 242.857,238.571 	"/>
	<polygon style="fill:#80D7F0;" points="245.714,55.714 245.714,47.143 234.286,47.143 242.857,55.714 	"/>
	<polygon style="fill:#80D7F0;" points="242.857,455.714 245.714,455.714 245.714,447.143 234.286,447.143 	"/>
	<polygon style="fill:#80D7F0;" points="245.714,307.143 245.714,298.571 234.286,298.571 242.857,307.143 	"/>
	<polygon style="fill:#80D7F0;" points="245.714,124.286 245.714,115.714 234.286,115.714 242.857,124.286 	"/>
	<polygon style="fill:#80D7F0;" points="245.714,295.714 245.714,287.143 234.286,287.143 242.857,295.714 	"/>
	<polygon style="fill:#80D7F0;" points="245.714,78.571 245.714,70 234.286,70 242.857,78.571 	"/>
	<polygon style="fill:#80D7F0;" points="245.714,318.571 245.714,310 234.286,310 242.857,318.571 	"/>
	<polygon style="fill:#80D7F0;" points="245.714,90 245.714,81.429 234.286,81.429 242.857,90 	"/>
	<polygon style="fill:#80D7F0;" points="245.714,112.857 245.714,104.286 234.286,104.286 242.857,112.857 	"/>
	<polygon style="fill:#80D7F0;" points="245.714,147.143 245.714,138.571 234.286,138.571 242.857,147.143 	"/>
	<polygon style="fill:#80D7F0;" points="245.714,330 245.714,321.429 234.286,321.429 242.857,330 	"/>
	<polygon style="fill:#80D7F0;" points="242.857,432.857 245.714,432.857 245.714,424.286 234.286,424.286 	"/>
	<polygon style="fill:#80D7F0;" points="245.714,284.286 245.714,275.714 234.286,275.714 242.857,284.286 	"/>
	<polygon style="fill:#80D7F0;" points="245.714,67.143 245.714,58.571 234.286,58.571 242.857,67.143 	"/>
	<polygon style="fill:#80D7F0;" points="234.286,332.857 242.857,341.429 245.714,341.429 245.714,332.857 	"/>
	<polygon style="fill:#80D7F0;" points="242.857,387.143 245.714,387.143 245.714,378.571 234.286,378.571 	"/>
	<polygon style="fill:#80D7F0;" points="242.857,444.286 245.714,444.286 245.714,435.714 234.286,435.714 	"/>
	<polygon style="fill:#80D7F0;" points="245.714,135.714 245.714,127.143 234.286,127.143 242.857,135.714 	"/>
	<polygon style="fill:#80D7F0;" points="242.857,352.857 245.714,352.857 245.714,344.286 234.286,344.286 	"/>
	<polygon style="fill:#80D7F0;" points="245.714,227.143 245.714,218.571 234.286,218.571 242.857,227.143 	"/>
	<polygon style="fill:#80D7F0;" points="245.714,101.429 245.714,92.857 234.286,92.857 242.857,101.429 	"/>
	<polygon style="fill:#6EB1E2;" points="257.143,101.429 248.571,101.429 248.571,104.286 257.143,112.857 248.571,112.857 
		248.571,115.714 257.143,124.286 248.571,124.286 248.571,127.143 257.143,135.714 248.571,135.714 248.571,138.571 
		257.143,147.143 248.571,147.143 248.571,150 257.143,158.571 248.571,158.571 248.571,161.429 257.143,170 248.571,170 
		248.571,172.857 257.143,181.429 248.571,181.429 248.571,184.286 257.143,192.857 248.571,192.857 248.571,195.714 
		257.143,204.286 248.571,204.286 248.571,207.143 257.143,215.714 248.571,215.714 248.571,218.571 257.143,227.143 
		248.571,227.143 248.571,230 257.143,238.571 248.571,238.571 248.571,241.429 257.143,250 248.571,250 248.571,252.857 
		257.143,261.429 248.571,261.429 248.571,264.286 257.143,272.857 248.571,272.857 248.571,275.714 257.143,284.286 
		248.571,284.286 248.571,287.143 257.143,295.714 248.571,295.714 248.571,298.571 257.143,307.143 248.571,307.143 248.571,310 
		257.143,318.571 248.571,318.571 248.571,321.429 257.143,330 248.571,330 248.571,332.857 257.143,341.429 248.571,341.429 
		248.571,344.286 257.143,352.857 248.571,352.857 248.571,355.714 257.143,364.286 248.571,364.286 248.571,367.143 
		257.143,375.714 248.571,375.714 248.571,378.571 257.143,387.143 248.571,387.143 248.571,390 257.143,398.571 248.571,398.571 
		248.571,401.429 257.143,410 248.571,410 248.571,412.857 257.143,421.429 248.571,421.429 248.571,424.286 257.143,432.857 
		248.571,432.857 248.571,435.714 257.143,444.286 248.571,444.286 248.571,447.143 257.143,455.714 260,455.714 260,447.143 
		260,444.286 260,435.714 260,432.857 260,424.286 260,421.429 260,412.857 260,410 260,401.429 260,398.571 260,390 260,387.143 
		260,378.571 260,375.714 260,367.143 260,364.286 260,355.714 260,352.857 260,344.286 260,341.429 260,332.857 260,330 
		260,321.429 260,318.571 260,310 260,307.143 260,298.571 260,295.714 260,287.143 260,284.286 260,275.714 260,272.857 
		260,264.286 260,261.429 260,252.857 260,250 260,241.429 260,238.571 260,230 260,227.143 260,218.571 260,215.714 260,207.143 
		260,204.286 260,195.714 260,192.857 260,184.286 260,181.429 260,172.857 260,170 260,161.429 260,158.571 260,150 260,147.143 
		260,138.571 260,135.714 260,127.143 260,124.286 260,115.714 260,112.857 260,104.286 260,101.429 260,92.857 260,90 260,81.429 
		260,78.571 260,70 260,67.143 260,58.571 260,55.714 260,47.143 260,44.286 260,35.714 260,32.857 260,24.286 260,21.429 
		260,12.857 248.571,12.857 257.143,21.429 248.571,21.429 248.571,24.286 257.143,32.857 248.571,32.857 248.571,35.714 
		257.143,44.286 248.571,44.286 248.571,47.143 257.143,55.714 248.571,55.714 248.571,58.571 257.143,67.143 248.571,67.143 
		248.571,70 257.143,78.571 248.571,78.571 248.571,81.429 257.143,90 248.571,90 248.571,92.857 	"/>
	<polygon style="fill:#80D7F0;" points="274.286,238.571 274.286,230 262.857,230 271.428,238.571 	"/>
	<polygon style="fill:#80D7F0;" points="274.286,215.714 274.286,207.143 262.857,207.143 271.428,215.714 	"/>
	<polygon style="fill:#80D7F0;" points="274.286,261.429 274.286,252.857 262.857,252.857 271.428,261.429 	"/>
	<polygon style="fill:#80D7F0;" points="274.286,204.286 274.286,195.714 262.857,195.714 271.428,204.286 	"/>
	<polygon style="fill:#80D7F0;" points="274.286,192.857 274.286,184.286 262.857,184.286 271.428,192.857 	"/>
	<polygon style="fill:#80D7F0;" points="274.286,250 274.286,241.429 262.857,241.429 271.428,250 	"/>
	<polygon style="fill:#80D7F0;" points="262.857,332.857 271.428,341.429 274.286,341.429 274.286,332.857 	"/>
	<polygon style="fill:#80D7F0;" points="274.286,307.143 274.286,298.571 262.857,298.571 271.428,307.143 	"/>
	<polygon style="fill:#80D7F0;" points="274.286,330 274.286,321.429 262.857,321.429 271.428,330 	"/>
	<polygon style="fill:#80D7F0;" points="274.286,295.714 274.286,287.143 262.857,287.143 271.428,295.714 	"/>
	<polygon style="fill:#80D7F0;" points="274.286,90 274.286,81.429 262.857,81.429 271.428,90 	"/>
	<polygon style="fill:#80D7F0;" points="274.286,318.571 274.286,310 262.857,310 271.428,318.571 	"/>
	<polygon style="fill:#80D7F0;" points="274.286,112.857 274.286,104.286 262.857,104.286 271.428,112.857 	"/>
	<polygon style="fill:#80D7F0;" points="274.286,284.286 274.286,275.714 262.857,275.714 271.428,284.286 	"/>
	<polygon style="fill:#80D7F0;" points="274.286,272.857 274.286,264.286 262.857,264.286 271.428,272.857 	"/>
	<polygon style="fill:#80D7F0;" points="271.428,410 274.286,410 274.286,401.429 262.857,401.429 	"/>
	<polygon style="fill:#80D7F0;" points="271.428,444.286 274.286,444.286 274.286,435.714 262.857,435.714 	"/>
	<polygon style="fill:#80D7F0;" points="271.428,455.714 274.286,455.714 274.286,447.143 262.857,447.143 	"/>
	<polygon style="fill:#80D7F0;" points="274.286,67.143 274.286,58.571 262.857,58.571 271.428,67.143 	"/>
	<polygon style="fill:#80D7F0;" points="274.286,78.571 274.286,70 262.857,70 271.428,78.571 	"/>
	<polygon style="fill:#80D7F0;" points="271.428,364.286 274.286,364.286 274.286,355.714 262.857,355.714 	"/>
	<polygon style="fill:#80D7F0;" points="271.428,387.143 274.286,387.143 274.286,378.571 262.857,378.571 	"/>
	<polygon style="fill:#80D7F0;" points="274.286,55.714 274.286,47.143 262.857,47.143 271.428,55.714 	"/>
	<polygon style="fill:#80D7F0;" points="271.428,398.571 274.286,398.571 274.286,390 262.857,390 	"/>
	<polygon style="fill:#80D7F0;" points="271.428,432.857 274.286,432.857 274.286,424.286 262.857,424.286 	"/>
	<polygon style="fill:#80D7F0;" points="271.428,421.429 274.286,421.429 274.286,412.857 262.857,412.857 	"/>
	<polygon style="fill:#80D7F0;" points="271.428,375.714 274.286,375.714 274.286,367.143 262.857,367.143 	"/>
	<polygon style="fill:#80D7F0;" points="274.286,181.429 274.286,172.857 262.857,172.857 271.428,181.429 	"/>
	<polygon style="fill:#80D7F0;" points="274.286,147.143 274.286,138.571 262.857,138.571 271.428,147.143 	"/>
	<polygon style="fill:#80D7F0;" points="274.286,135.714 274.286,127.143 262.857,127.143 271.428,135.714 	"/>
	<polygon style="fill:#80D7F0;" points="274.286,124.286 274.286,115.714 262.857,115.714 271.428,124.286 	"/>
	<polygon style="fill:#80D7F0;" points="274.286,158.571 274.286,150 262.857,150 271.428,158.571 	"/>
	<polygon style="fill:#80D7F0;" points="274.286,170 274.286,161.429 262.857,161.429 271.428,170 	"/>
	<polygon style="fill:#80D7F0;" points="274.286,32.857 274.286,24.286 262.857,24.286 271.428,32.857 	"/>
	<polygon style="fill:#80D7F0;" points="274.286,44.286 274.286,35.714 262.857,35.714 271.428,44.286 	"/>
	<polygon style="fill:#80D7F0;" points="274.286,21.429 274.286,12.857 262.857,12.857 271.428,21.429 	"/>
	<polygon style="fill:#80D7F0;" points="271.428,352.857 274.286,352.857 274.286,344.286 262.857,344.286 	"/>
	<polygon style="fill:#80D7F0;" points="274.286,227.143 274.286,218.571 262.857,218.571 271.428,227.143 	"/>
	<polygon style="fill:#80D7F0;" points="274.286,101.429 274.286,92.857 262.857,92.857 271.428,101.429 	"/>
	<polygon style="fill:#6EB1E2;" points="285.714,101.429 277.143,101.429 277.143,104.286 285.714,112.857 277.143,112.857 
		277.143,115.714 285.714,124.286 277.143,124.286 277.143,127.143 285.714,135.714 277.143,135.714 277.143,138.571 
		285.714,147.143 277.143,147.143 277.143,150 285.714,158.571 277.143,158.571 277.143,161.429 285.714,170 277.143,170 
		277.143,172.857 285.714,181.429 277.143,181.429 277.143,184.286 285.714,192.857 277.143,192.857 277.143,195.714 
		285.714,204.286 277.143,204.286 277.143,207.143 285.714,215.714 277.143,215.714 277.143,218.571 285.714,227.143 
		277.143,227.143 277.143,230 285.714,238.571 277.143,238.571 277.143,241.429 285.714,250 277.143,250 277.143,252.857 
		285.714,261.429 277.143,261.429 277.143,264.286 285.714,272.857 277.143,272.857 277.143,275.714 285.714,284.286 
		277.143,284.286 277.143,287.143 285.714,295.714 277.143,295.714 277.143,298.571 285.714,307.143 277.143,307.143 277.143,310 
		285.714,318.571 277.143,318.571 277.143,321.429 285.714,330 277.143,330 277.143,332.857 285.714,341.429 277.143,341.429 
		277.143,344.286 285.714,352.857 277.143,352.857 277.143,355.714 285.714,364.286 277.143,364.286 277.143,367.143 
		285.714,375.714 277.143,375.714 277.143,378.571 285.714,387.143 277.143,387.143 277.143,390 285.714,398.571 277.143,398.571 
		277.143,401.429 285.714,410 277.143,410 277.143,412.857 285.714,421.429 277.143,421.429 277.143,424.286 285.714,432.857 
		277.143,432.857 277.143,435.714 285.714,444.286 277.143,444.286 277.143,447.143 285.714,455.714 288.571,455.714 
		288.571,447.143 288.571,444.286 288.571,435.714 288.571,432.857 288.571,424.286 288.571,421.429 288.571,412.857 288.571,410 
		288.571,401.429 288.571,398.571 288.571,390 288.571,387.143 288.571,378.571 288.571,375.714 288.571,367.143 288.571,364.286 
		288.571,355.714 288.571,352.857 288.571,344.286 288.571,341.429 288.571,332.857 288.571,330 288.571,321.429 288.571,318.571 
		288.571,310 288.571,307.143 288.571,298.571 288.571,295.714 288.571,287.143 288.571,284.286 288.571,275.714 288.571,272.857 
		288.571,264.286 288.571,261.429 288.571,252.857 288.571,250 288.571,241.429 288.571,238.571 288.571,230 288.571,227.143 
		288.571,218.571 288.571,215.714 288.571,207.143 288.571,204.286 288.571,195.714 288.571,192.857 288.571,184.286 
		288.571,181.429 288.571,172.857 288.571,170 288.571,161.429 288.571,158.571 288.571,150 288.571,147.143 288.571,138.571 
		288.571,135.714 288.571,127.143 288.571,124.286 288.571,115.714 288.571,112.857 288.571,104.286 288.571,101.429 
		288.571,92.857 288.571,90 288.571,81.429 288.571,78.571 288.571,70 288.571,67.143 288.571,58.571 288.571,55.714 
		288.571,47.143 288.571,44.286 288.571,35.714 288.571,32.857 288.571,24.286 288.571,21.429 288.571,12.857 277.143,12.857 
		285.714,21.429 277.143,21.429 277.143,24.286 285.714,32.857 277.143,32.857 277.143,35.714 285.714,44.286 277.143,44.286 
		277.143,47.143 285.714,55.714 277.143,55.714 277.143,58.571 285.714,67.143 277.143,67.143 277.143,70 285.714,78.571 
		277.143,78.571 277.143,81.429 285.714,90 277.143,90 277.143,92.857 	"/>
	<polygon style="fill:#6EB1E2;" points="205.714,444.286 205.714,447.143 217.143,447.143 217.143,444.286 214.286,444.286 	"/>
	<polygon style="fill:#6EB1E2;" points="234.286,444.286 234.286,447.143 245.714,447.143 245.714,444.286 242.857,444.286 	"/>
	<polygon style="fill:#6EB1E2;" points="262.857,444.286 262.857,447.143 274.286,447.143 274.286,444.286 271.428,444.286 	"/>
	<polygon style="fill:#6EB1E2;" points="205.714,432.857 205.714,435.714 217.143,435.714 217.143,432.857 214.286,432.857 	"/>
	<polygon style="fill:#6EB1E2;" points="234.286,432.857 234.286,435.714 245.714,435.714 245.714,432.857 242.857,432.857 	"/>
	<polygon style="fill:#6EB1E2;" points="262.857,432.857 262.857,435.714 274.286,435.714 274.286,432.857 271.428,432.857 	"/>
	<polygon style="fill:#6EB1E2;" points="205.714,421.429 205.714,424.286 217.143,424.286 217.143,421.429 214.286,421.429 	"/>
	<polygon style="fill:#6EB1E2;" points="234.286,421.429 234.286,424.286 245.714,424.286 245.714,421.429 242.857,421.429 	"/>
	<polygon style="fill:#6EB1E2;" points="262.857,421.429 262.857,424.286 274.286,424.286 274.286,421.429 271.428,421.429 	"/>
	<polygon style="fill:#6EB1E2;" points="205.714,410 205.714,412.857 217.143,412.857 217.143,410 214.286,410 	"/>
	<polygon style="fill:#6EB1E2;" points="234.286,410 234.286,412.857 245.714,412.857 245.714,410 242.857,410 	"/>
	<polygon style="fill:#6EB1E2;" points="262.857,410 262.857,412.857 274.286,412.857 274.286,410 271.428,410 	"/>
	<polygon style="fill:#6EB1E2;" points="205.714,398.571 205.714,401.429 217.143,401.429 217.143,398.571 214.286,398.571 	"/>
	<polygon style="fill:#6EB1E2;" points="234.286,398.571 234.286,401.429 245.714,401.429 245.714,398.571 242.857,398.571 	"/>
	<polygon style="fill:#6EB1E2;" points="262.857,398.571 262.857,401.429 274.286,401.429 274.286,398.571 271.428,398.571 	"/>
	<polygon style="fill:#6EB1E2;" points="205.714,387.143 205.714,390 217.143,390 217.143,387.143 214.286,387.143 	"/>
	<polygon style="fill:#6EB1E2;" points="234.286,387.143 234.286,390 245.714,390 245.714,387.143 242.857,387.143 	"/>
	<polygon style="fill:#6EB1E2;" points="262.857,387.143 262.857,390 274.286,390 274.286,387.143 271.428,387.143 	"/>
	<polygon style="fill:#6EB1E2;" points="205.714,375.714 205.714,378.571 217.143,378.571 217.143,375.714 214.286,375.714 	"/>
	<polygon style="fill:#6EB1E2;" points="234.286,375.714 234.286,378.571 245.714,378.571 245.714,375.714 242.857,375.714 	"/>
	<polygon style="fill:#6EB1E2;" points="262.857,375.714 262.857,378.571 274.286,378.571 274.286,375.714 271.428,375.714 	"/>
	<polygon style="fill:#6EB1E2;" points="205.714,364.286 205.714,367.143 217.143,367.143 217.143,364.286 214.286,364.286 	"/>
	<polygon style="fill:#6EB1E2;" points="234.286,364.286 234.286,367.143 245.714,367.143 245.714,364.286 242.857,364.286 	"/>
	<polygon style="fill:#6EB1E2;" points="262.857,364.286 262.857,367.143 274.286,367.143 274.286,364.286 271.428,364.286 	"/>
	<polygon style="fill:#6EB1E2;" points="214.286,352.857 205.714,352.857 205.714,355.714 217.143,355.714 217.143,352.857 	"/>
	<polygon style="fill:#6EB1E2;" points="242.857,352.857 234.286,352.857 234.286,355.714 245.714,355.714 245.714,352.857 	"/>
	<polygon style="fill:#6EB1E2;" points="271.428,352.857 262.857,352.857 262.857,355.714 274.286,355.714 274.286,352.857 	"/>
	<polygon style="fill:#6EB1E2;" points="205.714,341.429 205.714,344.286 217.143,344.286 217.143,341.429 214.286,341.429 	"/>
	<polygon style="fill:#6EB1E2;" points="234.286,341.429 234.286,344.286 245.714,344.286 245.714,341.429 242.857,341.429 	"/>
	<polygon style="fill:#6EB1E2;" points="262.857,341.429 262.857,344.286 274.286,344.286 274.286,341.429 271.428,341.429 	"/>
	<polygon style="fill:#6EB1E2;" points="217.143,330 214.286,330 205.714,330 205.714,332.857 217.143,332.857 	"/>
	<polygon style="fill:#6EB1E2;" points="245.714,330 242.857,330 234.286,330 234.286,332.857 245.714,332.857 	"/>
	<polygon style="fill:#6EB1E2;" points="274.286,330 271.428,330 262.857,330 262.857,332.857 274.286,332.857 	"/>
	<polygon style="fill:#6EB1E2;" points="217.143,318.571 214.286,318.571 205.714,318.571 205.714,321.429 217.143,321.429 	"/>
	<polygon style="fill:#6EB1E2;" points="245.714,318.571 242.857,318.571 234.286,318.571 234.286,321.429 245.714,321.429 	"/>
	<polygon style="fill:#6EB1E2;" points="274.286,318.571 271.428,318.571 262.857,318.571 262.857,321.429 274.286,321.429 	"/>
	<polygon style="fill:#6EB1E2;" points="217.143,307.143 214.286,307.143 205.714,307.143 205.714,310 217.143,310 	"/>
	<polygon style="fill:#6EB1E2;" points="245.714,307.143 242.857,307.143 234.286,307.143 234.286,310 245.714,310 	"/>
	<polygon style="fill:#6EB1E2;" points="274.286,307.143 271.428,307.143 262.857,307.143 262.857,310 274.286,310 	"/>
	<polygon style="fill:#6EB1E2;" points="217.143,295.714 214.286,295.714 205.714,295.714 205.714,298.571 217.143,298.571 	"/>
	<polygon style="fill:#6EB1E2;" points="245.714,295.714 242.857,295.714 234.286,295.714 234.286,298.571 245.714,298.571 	"/>
	<polygon style="fill:#6EB1E2;" points="274.286,295.714 271.428,295.714 262.857,295.714 262.857,298.571 274.286,298.571 	"/>
	<polygon style="fill:#6EB1E2;" points="217.143,284.286 214.286,284.286 205.714,284.286 205.714,287.143 217.143,287.143 	"/>
	<polygon style="fill:#6EB1E2;" points="245.714,284.286 242.857,284.286 234.286,284.286 234.286,287.143 245.714,287.143 	"/>
	<polygon style="fill:#6EB1E2;" points="274.286,284.286 271.428,284.286 262.857,284.286 262.857,287.143 274.286,287.143 	"/>
	<polygon style="fill:#6EB1E2;" points="217.143,272.857 214.286,272.857 205.714,272.857 205.714,275.714 217.143,275.714 	"/>
	<polygon style="fill:#6EB1E2;" points="245.714,272.857 242.857,272.857 234.286,272.857 234.286,275.714 245.714,275.714 	"/>
	<polygon style="fill:#6EB1E2;" points="274.286,272.857 271.428,272.857 262.857,272.857 262.857,275.714 274.286,275.714 	"/>
	<polygon style="fill:#6EB1E2;" points="217.143,261.429 214.286,261.429 205.714,261.429 205.714,264.286 217.143,264.286 	"/>
	<polygon style="fill:#6EB1E2;" points="245.714,261.429 242.857,261.429 234.286,261.429 234.286,264.286 245.714,264.286 	"/>
	<polygon style="fill:#6EB1E2;" points="274.286,261.429 271.428,261.429 262.857,261.429 262.857,264.286 274.286,264.286 	"/>
	<polygon style="fill:#6EB1E2;" points="217.143,250 214.286,250 205.714,250 205.714,252.857 217.143,252.857 	"/>
	<polygon style="fill:#6EB1E2;" points="245.714,250 242.857,250 234.286,250 234.286,252.857 245.714,252.857 	"/>
	<polygon style="fill:#6EB1E2;" points="274.286,250 271.428,250 262.857,250 262.857,252.857 274.286,252.857 	"/>
	<polygon style="fill:#6EB1E2;" points="217.143,238.571 214.286,238.571 205.714,238.571 205.714,241.429 217.143,241.429 	"/>
	<polygon style="fill:#6EB1E2;" points="245.714,238.571 242.857,238.571 234.286,238.571 234.286,241.429 245.714,241.429 	"/>
	<polygon style="fill:#6EB1E2;" points="274.286,238.571 271.428,238.571 262.857,238.571 262.857,241.429 274.286,241.429 	"/>
	<polygon style="fill:#6EB1E2;" points="217.143,227.143 214.286,227.143 205.714,227.143 205.714,230 217.143,230 	"/>
	<polygon style="fill:#6EB1E2;" points="245.714,227.143 242.857,227.143 234.286,227.143 234.286,230 245.714,230 	"/>
	<polygon style="fill:#6EB1E2;" points="274.286,227.143 271.428,227.143 262.857,227.143 262.857,230 274.286,230 	"/>
	<polygon style="fill:#6EB1E2;" points="217.143,215.714 214.286,215.714 205.714,215.714 205.714,218.571 217.143,218.571 	"/>
	<polygon style="fill:#6EB1E2;" points="245.714,215.714 242.857,215.714 234.286,215.714 234.286,218.571 245.714,218.571 	"/>
	<polygon style="fill:#6EB1E2;" points="274.286,215.714 271.428,215.714 262.857,215.714 262.857,218.571 274.286,218.571 	"/>
	<polygon style="fill:#6EB1E2;" points="217.143,204.286 214.286,204.286 205.714,204.286 205.714,207.143 217.143,207.143 	"/>
	<polygon style="fill:#6EB1E2;" points="245.714,204.286 242.857,204.286 234.286,204.286 234.286,207.143 245.714,207.143 	"/>
	<polygon style="fill:#6EB1E2;" points="274.286,204.286 271.428,204.286 262.857,204.286 262.857,207.143 274.286,207.143 	"/>
	<polygon style="fill:#6EB1E2;" points="217.143,192.857 214.286,192.857 205.714,192.857 205.714,195.714 217.143,195.714 	"/>
	<polygon style="fill:#6EB1E2;" points="245.714,192.857 242.857,192.857 234.286,192.857 234.286,195.714 245.714,195.714 	"/>
	<polygon style="fill:#6EB1E2;" points="274.286,192.857 271.428,192.857 262.857,192.857 262.857,195.714 274.286,195.714 	"/>
	<polygon style="fill:#6EB1E2;" points="217.143,181.429 214.286,181.429 205.714,181.429 205.714,184.286 217.143,184.286 	"/>
	<polygon style="fill:#6EB1E2;" points="245.714,181.429 242.857,181.429 234.286,181.429 234.286,184.286 245.714,184.286 	"/>
	<polygon style="fill:#6EB1E2;" points="274.286,181.429 271.428,181.429 262.857,181.429 262.857,184.286 274.286,184.286 	"/>
	<polygon style="fill:#6EB1E2;" points="217.143,170 214.286,170 205.714,170 205.714,172.857 217.143,172.857 	"/>
	<polygon style="fill:#6EB1E2;" points="245.714,170 242.857,170 234.286,170 234.286,172.857 245.714,172.857 	"/>
	<polygon style="fill:#6EB1E2;" points="274.286,170 271.428,170 262.857,170 262.857,172.857 274.286,172.857 	"/>
	<polygon style="fill:#6EB1E2;" points="217.143,158.571 214.286,158.571 205.714,158.571 205.714,161.429 217.143,161.429 	"/>
	<polygon style="fill:#6EB1E2;" points="245.714,158.571 242.857,158.571 234.286,158.571 234.286,161.429 245.714,161.429 	"/>
	<polygon style="fill:#6EB1E2;" points="274.286,158.571 271.428,158.571 262.857,158.571 262.857,161.429 274.286,161.429 	"/>
	<polygon style="fill:#6EB1E2;" points="217.143,147.143 214.286,147.143 205.714,147.143 205.714,150 217.143,150 	"/>
	<polygon style="fill:#6EB1E2;" points="245.714,147.143 242.857,147.143 234.286,147.143 234.286,150 245.714,150 	"/>
	<polygon style="fill:#6EB1E2;" points="274.286,147.143 271.428,147.143 262.857,147.143 262.857,150 274.286,150 	"/>
	<polygon style="fill:#6EB1E2;" points="217.143,135.714 214.286,135.714 205.714,135.714 205.714,138.571 217.143,138.571 	"/>
	<polygon style="fill:#6EB1E2;" points="245.714,135.714 242.857,135.714 234.286,135.714 234.286,138.571 245.714,138.571 	"/>
	<polygon style="fill:#6EB1E2;" points="274.286,135.714 271.428,135.714 262.857,135.714 262.857,138.571 274.286,138.571 	"/>
	<polygon style="fill:#6EB1E2;" points="217.143,124.286 214.286,124.286 205.714,124.286 205.714,127.143 217.143,127.143 	"/>
	<polygon style="fill:#6EB1E2;" points="245.714,124.286 242.857,124.286 234.286,124.286 234.286,127.143 245.714,127.143 	"/>
	<polygon style="fill:#6EB1E2;" points="274.286,124.286 271.428,124.286 262.857,124.286 262.857,127.143 274.286,127.143 	"/>
	<polygon style="fill:#6EB1E2;" points="217.143,112.857 214.286,112.857 205.714,112.857 205.714,115.714 217.143,115.714 	"/>
	<polygon style="fill:#6EB1E2;" points="245.714,112.857 242.857,112.857 234.286,112.857 234.286,115.714 245.714,115.714 	"/>
	<polygon style="fill:#6EB1E2;" points="274.286,112.857 271.428,112.857 262.857,112.857 262.857,115.714 274.286,115.714 	"/>
	<polygon style="fill:#6EB1E2;" points="217.143,101.429 214.286,101.429 205.714,101.429 205.714,104.286 217.143,104.286 	"/>
	<polygon style="fill:#6EB1E2;" points="245.714,101.429 242.857,101.429 234.286,101.429 234.286,104.286 245.714,104.286 	"/>
	<polygon style="fill:#6EB1E2;" points="274.286,101.429 271.428,101.429 262.857,101.429 262.857,104.286 274.286,104.286 	"/>
	<polygon style="fill:#6EB1E2;" points="217.143,92.857 217.143,90 214.286,90 205.714,90 205.714,92.857 	"/>
	<polygon style="fill:#6EB1E2;" points="245.714,92.857 245.714,90 242.857,90 234.286,90 234.286,92.857 	"/>
	<polygon style="fill:#6EB1E2;" points="274.286,92.857 274.286,90 271.428,90 262.857,90 262.857,92.857 	"/>
	<polygon style="fill:#6EB1E2;" points="217.143,78.571 214.286,78.571 205.714,78.571 205.714,81.429 217.143,81.429 	"/>
	<polygon style="fill:#6EB1E2;" points="245.714,78.571 242.857,78.571 234.286,78.571 234.286,81.429 245.714,81.429 	"/>
	<polygon style="fill:#6EB1E2;" points="274.286,78.571 271.428,78.571 262.857,78.571 262.857,81.429 274.286,81.429 	"/>
	<polygon style="fill:#6EB1E2;" points="217.143,67.143 214.286,67.143 205.714,67.143 205.714,70 217.143,70 	"/>
	<polygon style="fill:#6EB1E2;" points="245.714,67.143 242.857,67.143 234.286,67.143 234.286,70 245.714,70 	"/>
	<polygon style="fill:#6EB1E2;" points="274.286,67.143 271.428,67.143 262.857,67.143 262.857,70 274.286,70 	"/>
	<polygon style="fill:#6EB1E2;" points="217.143,55.714 214.286,55.714 205.714,55.714 205.714,58.571 217.143,58.571 	"/>
	<polygon style="fill:#6EB1E2;" points="245.714,55.714 242.857,55.714 234.286,55.714 234.286,58.571 245.714,58.571 	"/>
	<polygon style="fill:#6EB1E2;" points="274.286,55.714 271.428,55.714 262.857,55.714 262.857,58.571 274.286,58.571 	"/>
	<polygon style="fill:#6EB1E2;" points="217.143,44.286 214.286,44.286 205.714,44.286 205.714,47.143 217.143,47.143 	"/>
	<polygon style="fill:#6EB1E2;" points="245.714,44.286 242.857,44.286 234.286,44.286 234.286,47.143 245.714,47.143 	"/>
	<polygon style="fill:#6EB1E2;" points="274.286,44.286 271.428,44.286 262.857,44.286 262.857,47.143 274.286,47.143 	"/>
	<polygon style="fill:#6EB1E2;" points="217.143,32.857 214.286,32.857 205.714,32.857 205.714,35.714 217.143,35.714 	"/>
	<polygon style="fill:#6EB1E2;" points="245.714,32.857 242.857,32.857 234.286,32.857 234.286,35.714 245.714,35.714 	"/>
	<polygon style="fill:#6EB1E2;" points="274.286,32.857 271.428,32.857 262.857,32.857 262.857,35.714 274.286,35.714 	"/>
	<polygon style="fill:#6EB1E2;" points="217.143,21.429 214.286,21.429 205.714,21.429 205.714,24.286 217.143,24.286 	"/>
	<polygon style="fill:#6EB1E2;" points="245.714,21.429 242.857,21.429 234.286,21.429 234.286,24.286 245.714,24.286 	"/>
	<polygon style="fill:#6EB1E2;" points="274.286,21.429 271.428,21.429 262.857,21.429 262.857,24.286 274.286,24.286 	"/>
	<polygon style="fill:#80D7F0;" points="191.428,12.857 191.428,21.429 200,21.429 	"/>
	<polygon style="fill:#95FFFF;" points="205.714,12.857 205.714,21.429 214.286,21.429 	"/>
	<polygon style="fill:#80D7F0;" points="220,12.857 220,21.429 228.571,21.429 	"/>
	<polygon style="fill:#95FFFF;" points="234.286,12.857 234.286,21.429 242.857,21.429 	"/>
	<polygon style="fill:#80D7F0;" points="248.571,12.857 248.571,21.429 257.143,21.429 	"/>
	<polygon style="fill:#95FFFF;" points="262.857,12.857 262.857,21.429 271.428,21.429 	"/>
	<polygon style="fill:#80D7F0;" points="277.143,12.857 277.143,21.429 285.714,21.429 	"/>
	<polygon style="fill:#80D7F0;" points="191.428,24.286 191.428,32.857 200,32.857 	"/>
	<polygon style="fill:#95FFFF;" points="205.714,24.286 205.714,32.857 214.286,32.857 	"/>
	<polygon style="fill:#80D7F0;" points="220,24.286 220,32.857 228.571,32.857 	"/>
	<polygon style="fill:#95FFFF;" points="234.286,24.286 234.286,32.857 242.857,32.857 	"/>
	<polygon style="fill:#80D7F0;" points="248.571,24.286 248.571,32.857 257.143,32.857 	"/>
	<polygon style="fill:#95FFFF;" points="262.857,24.286 262.857,32.857 271.428,32.857 	"/>
	<polygon style="fill:#80D7F0;" points="277.143,24.286 277.143,32.857 285.714,32.857 	"/>
	<polygon style="fill:#80D7F0;" points="191.428,35.714 191.428,44.286 200,44.286 	"/>
	<polygon style="fill:#95FFFF;" points="205.714,35.714 205.714,44.286 214.286,44.286 	"/>
	<polygon style="fill:#80D7F0;" points="220,35.714 220,44.286 228.571,44.286 	"/>
	<polygon style="fill:#95FFFF;" points="234.286,35.714 234.286,44.286 242.857,44.286 	"/>
	<polygon style="fill:#80D7F0;" points="248.571,35.714 248.571,44.286 257.143,44.286 	"/>
	<polygon style="fill:#95FFFF;" points="262.857,35.714 262.857,44.286 271.428,44.286 	"/>
	<polygon style="fill:#80D7F0;" points="277.143,35.714 277.143,44.286 285.714,44.286 	"/>
	<polygon style="fill:#80D7F0;" points="191.428,47.143 191.428,55.714 200,55.714 	"/>
	<polygon style="fill:#95FFFF;" points="205.714,47.143 205.714,55.714 214.286,55.714 	"/>
	<polygon style="fill:#80D7F0;" points="220,47.143 220,55.714 228.571,55.714 	"/>
	<polygon style="fill:#95FFFF;" points="234.286,47.143 234.286,55.714 242.857,55.714 	"/>
	<polygon style="fill:#80D7F0;" points="248.571,47.143 248.571,55.714 257.143,55.714 	"/>
	<polygon style="fill:#95FFFF;" points="262.857,47.143 262.857,55.714 271.428,55.714 	"/>
	<polygon style="fill:#80D7F0;" points="277.143,47.143 277.143,55.714 285.714,55.714 	"/>
	<polygon style="fill:#80D7F0;" points="191.428,58.571 191.428,67.143 200,67.143 	"/>
	<polygon style="fill:#95FFFF;" points="205.714,58.571 205.714,67.143 214.286,67.143 	"/>
	<polygon style="fill:#80D7F0;" points="220,58.571 220,67.143 228.571,67.143 	"/>
	<polygon style="fill:#95FFFF;" points="234.286,58.571 234.286,67.143 242.857,67.143 	"/>
	<polygon style="fill:#80D7F0;" points="248.571,58.571 248.571,67.143 257.143,67.143 	"/>
	<polygon style="fill:#95FFFF;" points="262.857,58.571 262.857,67.143 271.428,67.143 	"/>
	<polygon style="fill:#80D7F0;" points="277.143,58.571 277.143,67.143 285.714,67.143 	"/>
	<polygon style="fill:#80D7F0;" points="191.428,70 191.428,78.571 200,78.571 	"/>
	<polygon style="fill:#95FFFF;" points="205.714,70 205.714,78.571 214.286,78.571 	"/>
	<polygon style="fill:#80D7F0;" points="220,70 220,78.571 228.571,78.571 	"/>
	<polygon style="fill:#95FFFF;" points="234.286,70 234.286,78.571 242.857,78.571 	"/>
	<polygon style="fill:#80D7F0;" points="248.571,70 248.571,78.571 257.143,78.571 	"/>
	<polygon style="fill:#95FFFF;" points="262.857,70 262.857,78.571 271.428,78.571 	"/>
	<polygon style="fill:#80D7F0;" points="277.143,70 277.143,78.571 285.714,78.571 	"/>
	<polygon style="fill:#80D7F0;" points="191.428,81.429 191.428,90 200,90 	"/>
	<polygon style="fill:#95FFFF;" points="205.714,81.429 205.714,90 214.286,90 	"/>
	<polygon style="fill:#80D7F0;" points="220,81.429 220,90 228.571,90 	"/>
	<polygon style="fill:#95FFFF;" points="234.286,81.429 234.286,90 242.857,90 	"/>
	<polygon style="fill:#80D7F0;" points="248.571,81.429 248.571,90 257.143,90 	"/>
	<polygon style="fill:#95FFFF;" points="262.857,81.429 262.857,90 271.428,90 	"/>
	<polygon style="fill:#80D7F0;" points="277.143,81.429 277.143,90 285.714,90 	"/>
	<polygon style="fill:#80D7F0;" points="191.428,92.857 191.428,101.429 200,101.429 	"/>
	<polygon style="fill:#95FFFF;" points="205.714,92.857 205.714,101.429 214.286,101.429 	"/>
	<polygon style="fill:#80D7F0;" points="220,92.857 220,101.429 228.571,101.429 	"/>
	<polygon style="fill:#95FFFF;" points="234.286,92.857 234.286,101.429 242.857,101.429 	"/>
	<polygon style="fill:#80D7F0;" points="248.571,92.857 248.571,101.429 257.143,101.429 	"/>
	<polygon style="fill:#95FFFF;" points="262.857,92.857 262.857,101.429 271.428,101.429 	"/>
	<polygon style="fill:#80D7F0;" points="277.143,92.857 277.143,101.429 285.714,101.429 	"/>
	<polygon style="fill:#80D7F0;" points="191.428,104.286 191.428,112.857 200,112.857 	"/>
	<polygon style="fill:#95FFFF;" points="214.286,112.857 205.714,104.286 205.714,112.857 	"/>
	<polygon style="fill:#80D7F0;" points="228.571,112.857 220,104.286 220,112.857 	"/>
	<polygon style="fill:#95FFFF;" points="242.857,112.857 234.286,104.286 234.286,112.857 	"/>
	<polygon style="fill:#80D7F0;" points="257.143,112.857 248.571,104.286 248.571,112.857 	"/>
	<polygon style="fill:#95FFFF;" points="271.428,112.857 262.857,104.286 262.857,112.857 	"/>
	<polygon style="fill:#80D7F0;" points="285.714,112.857 277.143,104.286 277.143,112.857 	"/>
	<polygon style="fill:#80D7F0;" points="191.428,115.714 191.428,124.286 200,124.286 	"/>
	<polygon style="fill:#95FFFF;" points="205.714,115.714 205.714,124.286 214.286,124.286 	"/>
	<polygon style="fill:#80D7F0;" points="228.571,124.286 220,115.714 220,124.286 	"/>
	<polygon style="fill:#95FFFF;" points="234.286,115.714 234.286,124.286 242.857,124.286 	"/>
	<polygon style="fill:#80D7F0;" points="257.143,124.286 248.571,115.714 248.571,124.286 	"/>
	<polygon style="fill:#95FFFF;" points="262.857,115.714 262.857,124.286 271.428,124.286 	"/>
	<polygon style="fill:#80D7F0;" points="285.714,124.286 277.143,115.714 277.143,124.286 	"/>
	<polygon style="fill:#80D7F0;" points="191.428,127.143 191.428,135.714 200,135.714 	"/>
	<polygon style="fill:#95FFFF;" points="205.714,127.143 205.714,135.714 214.286,135.714 	"/>
	<polygon style="fill:#80D7F0;" points="228.571,135.714 220,127.143 220,135.714 	"/>
	<polygon style="fill:#95FFFF;" points="234.286,127.143 234.286,135.714 242.857,135.714 	"/>
	<polygon style="fill:#80D7F0;" points="257.143,135.714 248.571,127.143 248.571,135.714 	"/>
	<polygon style="fill:#95FFFF;" points="262.857,127.143 262.857,135.714 271.428,135.714 	"/>
	<polygon style="fill:#80D7F0;" points="285.714,135.714 277.143,127.143 277.143,135.714 	"/>
	<polygon style="fill:#80D7F0;" points="191.428,138.571 191.428,147.143 200,147.143 	"/>
	<polygon style="fill:#95FFFF;" points="205.714,138.571 205.714,147.143 214.286,147.143 	"/>
	<polygon style="fill:#80D7F0;" points="228.571,147.143 220,138.571 220,147.143 	"/>
	<polygon style="fill:#95FFFF;" points="234.286,138.571 234.286,147.143 242.857,147.143 	"/>
	<polygon style="fill:#80D7F0;" points="257.143,147.143 248.571,138.571 248.571,147.143 	"/>
	<polygon style="fill:#95FFFF;" points="262.857,138.571 262.857,147.143 271.428,147.143 	"/>
	<polygon style="fill:#80D7F0;" points="285.714,147.143 277.143,138.571 277.143,147.143 	"/>
	<polygon style="fill:#80D7F0;" points="191.428,150 191.428,158.571 200,158.571 	"/>
	<polygon style="fill:#95FFFF;" points="205.714,150 205.714,158.571 214.286,158.571 	"/>
	<polygon style="fill:#80D7F0;" points="228.571,158.571 220,150 220,158.571 	"/>
	<polygon style="fill:#95FFFF;" points="234.286,150 234.286,158.571 242.857,158.571 	"/>
	<polygon style="fill:#80D7F0;" points="257.143,158.571 248.571,150 248.571,158.571 	"/>
	<polygon style="fill:#95FFFF;" points="262.857,150 262.857,158.571 271.428,158.571 	"/>
	<polygon style="fill:#80D7F0;" points="285.714,158.571 277.143,150 277.143,158.571 	"/>
	<polygon style="fill:#80D7F0;" points="191.428,161.429 191.428,170 200,170 	"/>
	<polygon style="fill:#95FFFF;" points="205.714,161.429 205.714,170 214.286,170 	"/>
	<polygon style="fill:#80D7F0;" points="228.571,170 220,161.429 220,170 	"/>
	<polygon style="fill:#95FFFF;" points="234.286,161.429 234.286,170 242.857,170 	"/>
	<polygon style="fill:#80D7F0;" points="257.143,170 248.571,161.429 248.571,170 	"/>
	<polygon style="fill:#95FFFF;" points="262.857,161.429 262.857,170 271.428,170 	"/>
	<polygon style="fill:#80D7F0;" points="285.714,170 277.143,161.429 277.143,170 	"/>
	<polygon style="fill:#80D7F0;" points="191.428,172.857 191.428,181.429 200,181.429 	"/>
	<polygon style="fill:#95FFFF;" points="205.714,172.857 205.714,181.429 214.286,181.429 	"/>
	<polygon style="fill:#80D7F0;" points="228.571,181.429 220,172.857 220,181.429 	"/>
	<polygon style="fill:#95FFFF;" points="234.286,172.857 234.286,181.429 242.857,181.429 	"/>
	<polygon style="fill:#80D7F0;" points="257.143,181.429 248.571,172.857 248.571,181.429 	"/>
	<polygon style="fill:#95FFFF;" points="262.857,172.857 262.857,181.429 271.428,181.429 	"/>
	<polygon style="fill:#80D7F0;" points="285.714,181.429 277.143,172.857 277.143,181.429 	"/>
	<polygon style="fill:#80D7F0;" points="191.428,184.286 191.428,192.857 200,192.857 	"/>
	<polygon style="fill:#95FFFF;" points="205.714,184.286 205.714,192.857 214.286,192.857 	"/>
	<polygon style="fill:#80D7F0;" points="228.571,192.857 220,184.286 220,192.857 	"/>
	<polygon style="fill:#95FFFF;" points="234.286,184.286 234.286,192.857 242.857,192.857 	"/>
	<polygon style="fill:#80D7F0;" points="257.143,192.857 248.571,184.286 248.571,192.857 	"/>
	<polygon style="fill:#95FFFF;" points="262.857,184.286 262.857,192.857 271.428,192.857 	"/>
	<polygon style="fill:#80D7F0;" points="285.714,192.857 277.143,184.286 277.143,192.857 	"/>
	<polygon style="fill:#80D7F0;" points="191.428,195.714 191.428,204.286 200,204.286 	"/>
	<polygon style="fill:#95FFFF;" points="205.714,195.714 205.714,204.286 214.286,204.286 	"/>
	<polygon style="fill:#80D7F0;" points="228.571,204.286 220,195.714 220,204.286 	"/>
	<polygon style="fill:#95FFFF;" points="234.286,195.714 234.286,204.286 242.857,204.286 	"/>
	<polygon style="fill:#80D7F0;" points="257.143,204.286 248.571,195.714 248.571,204.286 	"/>
	<polygon style="fill:#95FFFF;" points="262.857,195.714 262.857,204.286 271.428,204.286 	"/>
	<polygon style="fill:#80D7F0;" points="285.714,204.286 277.143,195.714 277.143,204.286 	"/>
	<polygon style="fill:#80D7F0;" points="191.428,207.143 191.428,215.714 200,215.714 	"/>
	<polygon style="fill:#95FFFF;" points="205.714,207.143 205.714,215.714 214.286,215.714 	"/>
	<polygon style="fill:#80D7F0;" points="228.571,215.714 220,207.143 220,215.714 	"/>
	<polygon style="fill:#95FFFF;" points="234.286,207.143 234.286,215.714 242.857,215.714 	"/>
	<polygon style="fill:#80D7F0;" points="257.143,215.714 248.571,207.143 248.571,215.714 	"/>
	<polygon style="fill:#95FFFF;" points="262.857,207.143 262.857,215.714 271.428,215.714 	"/>
	<polygon style="fill:#80D7F0;" points="285.714,215.714 277.143,207.143 277.143,215.714 	"/>
	<polygon style="fill:#80D7F0;" points="191.428,218.571 191.428,227.143 200,227.143 	"/>
	<polygon style="fill:#95FFFF;" points="205.714,218.571 205.714,227.143 214.286,227.143 	"/>
	<polygon style="fill:#80D7F0;" points="228.571,227.143 220,218.571 220,227.143 	"/>
	<polygon style="fill:#95FFFF;" points="234.286,218.571 234.286,227.143 242.857,227.143 	"/>
	<polygon style="fill:#80D7F0;" points="257.143,227.143 248.571,218.571 248.571,227.143 	"/>
	<polygon style="fill:#95FFFF;" points="262.857,218.571 262.857,227.143 271.428,227.143 	"/>
	<polygon style="fill:#80D7F0;" points="285.714,227.143 277.143,218.571 277.143,227.143 	"/>
	<polygon style="fill:#80D7F0;" points="191.428,230 191.428,238.571 200,238.571 	"/>
	<polygon style="fill:#95FFFF;" points="205.714,230 205.714,238.571 214.286,238.571 	"/>
	<polygon style="fill:#80D7F0;" points="228.571,238.571 220,230 220,238.571 	"/>
	<polygon style="fill:#95FFFF;" points="234.286,230 234.286,238.571 242.857,238.571 	"/>
	<polygon style="fill:#80D7F0;" points="257.143,238.571 248.571,230 248.571,238.571 	"/>
	<polygon style="fill:#95FFFF;" points="262.857,230 262.857,238.571 271.428,238.571 	"/>
	<polygon style="fill:#80D7F0;" points="285.714,238.571 277.143,230 277.143,238.571 	"/>
	<polygon style="fill:#80D7F0;" points="191.428,241.429 191.428,250 200,250 	"/>
	<polygon style="fill:#95FFFF;" points="205.714,241.429 205.714,250 214.286,250 	"/>
	<polygon style="fill:#80D7F0;" points="228.571,250 220,241.429 220,250 	"/>
	<polygon style="fill:#95FFFF;" points="234.286,241.429 234.286,250 242.857,250 	"/>
	<polygon style="fill:#80D7F0;" points="257.143,250 248.571,241.429 248.571,250 	"/>
	<polygon style="fill:#95FFFF;" points="262.857,241.429 262.857,250 271.428,250 	"/>
	<polygon style="fill:#80D7F0;" points="285.714,250 277.143,241.429 277.143,250 	"/>
	<polygon style="fill:#80D7F0;" points="191.428,252.857 191.428,261.429 200,261.429 	"/>
	<polygon style="fill:#95FFFF;" points="205.714,252.857 205.714,261.429 214.286,261.429 	"/>
	<polygon style="fill:#80D7F0;" points="228.571,261.429 220,252.857 220,261.429 	"/>
	<polygon style="fill:#95FFFF;" points="234.286,252.857 234.286,261.429 242.857,261.429 	"/>
	<polygon style="fill:#80D7F0;" points="257.143,261.429 248.571,252.857 248.571,261.429 	"/>
	<polygon style="fill:#95FFFF;" points="262.857,252.857 262.857,261.429 271.428,261.429 	"/>
	<polygon style="fill:#80D7F0;" points="285.714,261.429 277.143,252.857 277.143,261.429 	"/>
	<polygon style="fill:#80D7F0;" points="191.428,264.286 191.428,272.857 200,272.857 	"/>
	<polygon style="fill:#95FFFF;" points="205.714,264.286 205.714,272.857 214.286,272.857 	"/>
	<polygon style="fill:#80D7F0;" points="228.571,272.857 220,264.286 220,272.857 	"/>
	<polygon style="fill:#95FFFF;" points="234.286,264.286 234.286,272.857 242.857,272.857 	"/>
	<polygon style="fill:#80D7F0;" points="257.143,272.857 248.571,264.286 248.571,272.857 	"/>
	<polygon style="fill:#95FFFF;" points="262.857,264.286 262.857,272.857 271.428,272.857 	"/>
	<polygon style="fill:#80D7F0;" points="285.714,272.857 277.143,264.286 277.143,272.857 	"/>
	<polygon style="fill:#80D7F0;" points="191.428,275.714 191.428,284.286 200,284.286 	"/>
	<polygon style="fill:#95FFFF;" points="205.714,275.714 205.714,284.286 214.286,284.286 	"/>
	<polygon style="fill:#80D7F0;" points="228.571,284.286 220,275.714 220,284.286 	"/>
	<polygon style="fill:#95FFFF;" points="234.286,275.714 234.286,284.286 242.857,284.286 	"/>
	<polygon style="fill:#80D7F0;" points="257.143,284.286 248.571,275.714 248.571,284.286 	"/>
	<polygon style="fill:#95FFFF;" points="262.857,275.714 262.857,284.286 271.428,284.286 	"/>
	<polygon style="fill:#80D7F0;" points="285.714,284.286 277.143,275.714 277.143,284.286 	"/>
	<polygon style="fill:#80D7F0;" points="191.428,287.143 191.428,295.714 200,295.714 	"/>
	<polygon style="fill:#95FFFF;" points="205.714,287.143 205.714,295.714 214.286,295.714 	"/>
	<polygon style="fill:#80D7F0;" points="228.571,295.714 220,287.143 220,295.714 	"/>
	<polygon style="fill:#95FFFF;" points="234.286,287.143 234.286,295.714 242.857,295.714 	"/>
	<polygon style="fill:#80D7F0;" points="257.143,295.714 248.571,287.143 248.571,295.714 	"/>
	<polygon style="fill:#95FFFF;" points="262.857,287.143 262.857,295.714 271.428,295.714 	"/>
	<polygon style="fill:#80D7F0;" points="285.714,295.714 277.143,287.143 277.143,295.714 	"/>
	<polygon style="fill:#80D7F0;" points="191.428,298.571 191.428,307.143 200,307.143 	"/>
	<polygon style="fill:#95FFFF;" points="205.714,298.571 205.714,307.143 214.286,307.143 	"/>
	<polygon style="fill:#80D7F0;" points="228.571,307.143 220,298.571 220,307.143 	"/>
	<polygon style="fill:#95FFFF;" points="234.286,298.571 234.286,307.143 242.857,307.143 	"/>
	<polygon style="fill:#80D7F0;" points="257.143,307.143 248.571,298.571 248.571,307.143 	"/>
	<polygon style="fill:#95FFFF;" points="262.857,298.571 262.857,307.143 271.428,307.143 	"/>
	<polygon style="fill:#80D7F0;" points="285.714,307.143 277.143,298.571 277.143,307.143 	"/>
	<polygon style="fill:#80D7F0;" points="191.428,310 191.428,318.571 200,318.571 	"/>
	<polygon style="fill:#95FFFF;" points="205.714,310 205.714,318.571 214.286,318.571 	"/>
	<polygon style="fill:#80D7F0;" points="228.571,318.571 220,310 220,318.571 	"/>
	<polygon style="fill:#95FFFF;" points="234.286,310 234.286,318.571 242.857,318.571 	"/>
	<polygon style="fill:#80D7F0;" points="257.143,318.571 248.571,310 248.571,318.571 	"/>
	<polygon style="fill:#95FFFF;" points="262.857,310 262.857,318.571 271.428,318.571 	"/>
	<polygon style="fill:#80D7F0;" points="285.714,318.571 277.143,310 277.143,318.571 	"/>
	<polygon style="fill:#80D7F0;" points="191.428,321.429 191.428,330 200,330 	"/>
	<polygon style="fill:#95FFFF;" points="205.714,321.429 205.714,330 214.286,330 	"/>
	<polygon style="fill:#80D7F0;" points="228.571,330 220,321.429 220,330 	"/>
	<polygon style="fill:#95FFFF;" points="234.286,321.429 234.286,330 242.857,330 	"/>
	<polygon style="fill:#80D7F0;" points="257.143,330 248.571,321.429 248.571,330 	"/>
	<polygon style="fill:#95FFFF;" points="262.857,321.429 262.857,330 271.428,330 	"/>
	<polygon style="fill:#80D7F0;" points="285.714,330 277.143,321.429 277.143,330 	"/>
	<polygon style="fill:#80D7F0;" points="191.428,332.857 191.428,341.429 200,341.429 	"/>
	<polygon style="fill:#95FFFF;" points="205.714,332.857 205.714,341.429 214.286,341.429 	"/>
	<polygon style="fill:#80D7F0;" points="228.571,341.429 220,332.857 220,341.429 	"/>
	<polygon style="fill:#95FFFF;" points="234.286,332.857 234.286,341.429 242.857,341.429 	"/>
	<polygon style="fill:#80D7F0;" points="257.143,341.429 248.571,332.857 248.571,341.429 	"/>
	<polygon style="fill:#95FFFF;" points="262.857,332.857 262.857,341.429 271.428,341.429 	"/>
	<polygon style="fill:#80D7F0;" points="285.714,341.429 277.143,332.857 277.143,341.429 	"/>
	<polygon style="fill:#80D7F0;" points="191.428,344.286 191.428,352.857 200,352.857 	"/>
	<polygon style="fill:#95FFFF;" points="205.714,352.857 214.286,352.857 205.714,344.286 	"/>
	<polygon style="fill:#80D7F0;" points="228.571,352.857 220,344.286 220,352.857 	"/>
	<polygon style="fill:#95FFFF;" points="234.286,352.857 242.857,352.857 234.286,344.286 	"/>
	<polygon style="fill:#80D7F0;" points="257.143,352.857 248.571,344.286 248.571,352.857 	"/>
	<polygon style="fill:#95FFFF;" points="262.857,352.857 271.428,352.857 262.857,344.286 	"/>
	<polygon style="fill:#80D7F0;" points="285.714,352.857 277.143,344.286 277.143,352.857 	"/>
	<polygon style="fill:#80D7F0;" points="191.428,355.714 191.428,364.286 200,364.286 	"/>
	<polygon style="fill:#95FFFF;" points="205.714,355.714 205.714,364.286 214.286,364.286 	"/>
	<polygon style="fill:#80D7F0;" points="220,355.714 220,364.286 228.571,364.286 	"/>
	<polygon style="fill:#95FFFF;" points="234.286,355.714 234.286,364.286 242.857,364.286 	"/>
	<polygon style="fill:#80D7F0;" points="248.571,355.714 248.571,364.286 257.143,364.286 	"/>
	<polygon style="fill:#95FFFF;" points="262.857,355.714 262.857,364.286 271.428,364.286 	"/>
	<polygon style="fill:#80D7F0;" points="277.143,355.714 277.143,364.286 285.714,364.286 	"/>
	<polygon style="fill:#80D7F0;" points="191.428,367.143 191.428,375.714 200,375.714 	"/>
	<polygon style="fill:#95FFFF;" points="205.714,367.143 205.714,375.714 214.286,375.714 	"/>
	<polygon style="fill:#80D7F0;" points="220,367.143 220,375.714 228.571,375.714 	"/>
	<polygon style="fill:#95FFFF;" points="234.286,367.143 234.286,375.714 242.857,375.714 	"/>
	<polygon style="fill:#80D7F0;" points="248.571,367.143 248.571,375.714 257.143,375.714 	"/>
	<polygon style="fill:#95FFFF;" points="262.857,367.143 262.857,375.714 271.428,375.714 	"/>
	<polygon style="fill:#80D7F0;" points="277.143,367.143 277.143,375.714 285.714,375.714 	"/>
	<polygon style="fill:#80D7F0;" points="191.428,378.571 191.428,387.143 200,387.143 	"/>
	<polygon style="fill:#95FFFF;" points="205.714,378.571 205.714,387.143 214.286,387.143 	"/>
	<polygon style="fill:#80D7F0;" points="220,378.571 220,387.143 228.571,387.143 	"/>
	<polygon style="fill:#95FFFF;" points="234.286,378.571 234.286,387.143 242.857,387.143 	"/>
	<polygon style="fill:#80D7F0;" points="248.571,378.571 248.571,387.143 257.143,387.143 	"/>
	<polygon style="fill:#95FFFF;" points="262.857,378.571 262.857,387.143 271.428,387.143 	"/>
	<polygon style="fill:#80D7F0;" points="277.143,378.571 277.143,387.143 285.714,387.143 	"/>
	<polygon style="fill:#80D7F0;" points="191.428,390 191.428,398.571 200,398.571 	"/>
	<polygon style="fill:#95FFFF;" points="205.714,390 205.714,398.571 214.286,398.571 	"/>
	<polygon style="fill:#80D7F0;" points="220,390 220,398.571 228.571,398.571 	"/>
	<polygon style="fill:#95FFFF;" points="234.286,390 234.286,398.571 242.857,398.571 	"/>
	<polygon style="fill:#80D7F0;" points="248.571,390 248.571,398.571 257.143,398.571 	"/>
	<polygon style="fill:#95FFFF;" points="262.857,390 262.857,398.571 271.428,398.571 	"/>
	<polygon style="fill:#80D7F0;" points="277.143,390 277.143,398.571 285.714,398.571 	"/>
	<polygon style="fill:#80D7F0;" points="191.428,401.429 191.428,410 200,410 	"/>
	<polygon style="fill:#95FFFF;" points="205.714,401.429 205.714,410 214.286,410 	"/>
	<polygon style="fill:#80D7F0;" points="220,401.429 220,410 228.571,410 	"/>
	<polygon style="fill:#95FFFF;" points="234.286,401.429 234.286,410 242.857,410 	"/>
	<polygon style="fill:#80D7F0;" points="248.571,401.429 248.571,410 257.143,410 	"/>
	<polygon style="fill:#95FFFF;" points="262.857,401.429 262.857,410 271.428,410 	"/>
	<polygon style="fill:#80D7F0;" points="277.143,401.429 277.143,410 285.714,410 	"/>
	<polygon style="fill:#80D7F0;" points="191.428,412.857 191.428,421.429 200,421.429 	"/>
	<polygon style="fill:#95FFFF;" points="205.714,412.857 205.714,421.429 214.286,421.429 	"/>
	<polygon style="fill:#80D7F0;" points="220,412.857 220,421.429 228.571,421.429 	"/>
	<polygon style="fill:#95FFFF;" points="234.286,412.857 234.286,421.429 242.857,421.429 	"/>
	<polygon style="fill:#80D7F0;" points="248.571,412.857 248.571,421.429 257.143,421.429 	"/>
	<polygon style="fill:#95FFFF;" points="262.857,412.857 262.857,421.429 271.428,421.429 	"/>
	<polygon style="fill:#80D7F0;" points="277.143,412.857 277.143,421.429 285.714,421.429 	"/>
	<polygon style="fill:#80D7F0;" points="191.428,424.286 191.428,432.857 200,432.857 	"/>
	<polygon style="fill:#95FFFF;" points="205.714,424.286 205.714,432.857 214.286,432.857 	"/>
	<polygon style="fill:#80D7F0;" points="220,424.286 220,432.857 228.571,432.857 	"/>
	<polygon style="fill:#95FFFF;" points="234.286,424.286 234.286,432.857 242.857,432.857 	"/>
	<polygon style="fill:#80D7F0;" points="248.571,424.286 248.571,432.857 257.143,432.857 	"/>
	<polygon style="fill:#95FFFF;" points="262.857,424.286 262.857,432.857 271.428,432.857 	"/>
	<polygon style="fill:#80D7F0;" points="277.143,424.286 277.143,432.857 285.714,432.857 	"/>
	<polygon style="fill:#80D7F0;" points="191.428,435.714 191.428,444.286 200,444.286 	"/>
	<polygon style="fill:#95FFFF;" points="205.714,435.714 205.714,444.286 214.286,444.286 	"/>
	<polygon style="fill:#80D7F0;" points="220,435.714 220,444.286 228.571,444.286 	"/>
	<polygon style="fill:#95FFFF;" points="234.286,435.714 234.286,444.286 242.857,444.286 	"/>
	<polygon style="fill:#80D7F0;" points="248.571,435.714 248.571,444.286 257.143,444.286 	"/>
	<polygon style="fill:#95FFFF;" points="262.857,435.714 262.857,444.286 271.428,444.286 	"/>
	<polygon style="fill:#80D7F0;" points="277.143,435.714 277.143,444.286 285.714,444.286 	"/>
	<polygon style="fill:#80D7F0;" points="191.428,455.714 200,455.714 191.428,447.143 	"/>
	<polygon style="fill:#95FFFF;" points="205.714,455.714 214.286,455.714 205.714,447.143 	"/>
	<polygon style="fill:#80D7F0;" points="220,455.714 228.571,455.714 220,447.143 	"/>
	<polygon style="fill:#95FFFF;" points="234.286,455.714 242.857,455.714 234.286,447.143 	"/>
	<polygon style="fill:#80D7F0;" points="248.571,455.714 257.143,455.714 248.571,447.143 	"/>
	<polygon style="fill:#95FFFF;" points="262.857,455.714 271.428,455.714 262.857,447.143 	"/>
	<polygon style="fill:#80D7F0;" points="277.143,455.714 285.714,455.714 277.143,447.143 	"/>
	<path style="fill:#695A69;" d="M288.571,460h-25.714v8.571H260V460h-40v8.571h-2.857V460h-25.714v8.571H180V480h11.428h2.857
		v-11.429h20V480h2.857H220h2.857v-11.429h34.286V480H260h2.857h2.857v-11.429h20V480h2.857H300v-11.429h-11.429V460z
		 M194.286,467.143v-4.286h20v4.286H194.286z M222.857,467.143v-4.286h34.286v4.286H222.857z M265.714,467.143v-4.286h20v4.286
		H265.714z"/>
	<polygon style="fill:#95FFFF;" points="222.857,480 234.286,480 222.857,468.571 	"/>
	<polygon style="fill:#95FFFF;" points="194.286,480 205.714,480 194.286,468.571 	"/>
	<polygon style="fill:#95FFFF;" points="265.714,480 277.143,480 265.714,468.571 	"/>
	<rect x="194.286" y="462.857" style="fill:#6EB1E2;" width="20" height="4.286"/>
	<rect x="265.714" y="462.857" style="fill:#6EB1E2;" width="20" height="4.286"/>
	<rect x="222.857" y="462.857" style="fill:#6EB1E2;" width="34.286" height="4.286"/>
	<polygon style="fill:#80D7F0;" points="194.286,468.571 205.714,480 214.286,480 214.286,468.571 	"/>
	<polygon style="fill:#80D7F0;" points="222.857,468.571 234.286,480 257.143,480 257.143,468.571 	"/>
	<polygon style="fill:#80D7F0;" points="265.714,468.571 277.143,480 285.714,480 285.714,468.571 	"/>
</g>
</svg>